<?xml version="1.0" standalone="no"?>
<!DOCTYPE svg PUBLIC "-//W3C//DTD SVG 20010904//EN"
 "http://www.w3.org/TR/2001/REC-SVG-20010904/DTD/svg10.dtd">
<svg version="1.0" xmlns="http://www.w3.org/2000/svg"
 width="1366.000000pt" height="725.000000pt" viewBox="0 0 1366.000000 725.000000"
 preserveAspectRatio="xMidYMid meet">

<g transform="translate(0.000000,725.000000) scale(0.100000,-0.100000)"
fill="#000000" stroke="none">
<path d="M6606 6270 c-793 -70 -1462 -612 -1692 -1367 -35 -116 -66 -282 -79
-416 -5 -54 -11 -69 -28 -78 -37 -21 -79 14 -180 150 -109 147 -178 217 -250
257 -46 26 -62 29 -138 29 -76 0 -90 -3 -126 -27 -22 -15 -53 -48 -68 -75 -75
-133 -53 -329 75 -648 139 -350 284 -557 447 -638 39 -20 74 -44 78 -54 4 -10
9 -70 12 -133 6 -137 -14 -249 -72 -405 -48 -128 -160 -350 -234 -462 -138
-210 -227 -285 -502 -421 -202 -100 -282 -157 -342 -242 -137 -196 -80 -453
121 -552 l67 -33 180 -1 c134 -1 195 -5 238 -18 32 -9 66 -16 75 -16 9 0 103
-42 208 -94 289 -142 392 -170 534 -146 166 28 280 120 444 360 175 254 243
308 401 317 66 4 90 1 139 -17 75 -28 154 -107 217 -216 26 -43 75 -128 110
-188 62 -106 168 -230 228 -268 22 -13 -71 -15 -910 -21 -1486 -11 -2079 -33
-2123 -77 -28 -28 60 -46 307 -65 847 -64 4416 -73 5842 -15 360 15 507 29
503 49 -6 30 -60 36 -608 60 -525 23 -842 31 -1455 36 -346 3 -667 8 -712 11
l-83 6 60 39 c32 22 119 96 191 165 157 147 204 174 298 174 90 -1 149 -27
317 -142 155 -106 208 -135 325 -178 72 -27 93 -30 197 -30 87 0 136 5 190 20
93 26 222 89 287 139 145 114 149 116 249 119 75 3 109 -1 187 -22 121 -33
204 -34 298 -2 93 31 158 79 198 145 78 130 47 265 -96 415 -75 77 -147 129
-472 336 -146 93 -298 244 -373 372 -98 165 -165 365 -215 638 -12 63 -24 125
-27 137 -5 19 1 23 53 38 212 61 399 239 498 475 152 362 89 680 -135 680 -72
0 -133 -27 -297 -128 -72 -44 -163 -97 -200 -116 l-68 -34 3 197 c3 148 0 225
-12 311 -102 699 -554 1279 -1196 1535 -276 110 -602 160 -884 135z m469 -134
c485 -77 951 -383 1225 -806 100 -155 204 -401 246 -585 41 -180 56 -450 34
-610 -6 -38 -13 -100 -16 -136 -7 -65 -6 -67 20 -84 25 -17 30 -17 61 -2 18 9
62 37 97 63 35 25 88 59 119 74 31 16 69 40 85 53 47 40 225 135 277 149 61
16 93 1 122 -57 16 -33 19 -59 18 -140 -1 -121 -26 -224 -83 -344 -106 -222
-240 -339 -450 -395 -51 -14 -103 -32 -116 -40 -44 -30 -40 -62 45 -356 44
-151 87 -288 95 -305 8 -16 41 -86 74 -155 90 -188 217 -347 362 -452 36 -25
117 -79 180 -118 293 -184 429 -299 465 -393 28 -74 17 -138 -31 -188 -85 -87
-228 -106 -389 -49 -116 40 -202 48 -279 26 -51 -15 -70 -29 -155 -113 -102
-102 -138 -124 -256 -154 -104 -28 -183 -33 -276 -19 -121 17 -196 51 -369
169 -85 57 -182 117 -216 132 -83 38 -170 53 -238 40 -112 -21 -167 -56 -329
-210 -63 -60 -136 -123 -161 -140 -195 -135 -452 -159 -645 -62 -118 60 -191
147 -331 399 -139 247 -270 346 -455 345 -218 -1 -325 -76 -517 -360 -162
-240 -258 -315 -414 -321 -116 -5 -179 14 -414 128 -303 146 -360 162 -595
164 -151 1 -163 3 -210 26 -131 68 -143 281 -22 403 56 55 109 88 282 174 199
98 269 145 370 247 131 132 284 384 389 641 67 164 86 249 98 425 15 231 -3
276 -137 347 -156 83 -269 242 -400 562 -72 176 -105 301 -112 422 -5 98 -4
110 17 147 35 62 91 77 166 43 64 -29 119 -85 226 -229 100 -135 147 -177 226
-203 107 -35 192 37 192 163 0 134 59 398 124 560 101 251 234 447 432 638
116 112 202 178 339 259 216 128 476 214 745 245 74 9 390 -3 485 -18z"/>
<path d="M5549 4657 c-264 -99 -290 -447 -42 -569 85 -42 178 -45 261 -9 66
30 144 113 166 177 50 149 -22 326 -156 384 -65 28 -177 36 -229 17z m65 -96
c27 -30 38 -93 23 -137 -25 -77 -117 -105 -163 -50 -41 47 -26 153 27 190 32
22 92 21 113 -3z m94 -259 c2 -14 -2 -22 -12 -22 -19 0 -29 17 -22 36 8 22 30
12 34 -14z"/>
<path d="M7533 4629 c-63 -24 -128 -85 -156 -147 -32 -71 -30 -181 5 -247 116
-220 418 -211 522 14 15 34 21 66 21 121 0 65 -4 81 -28 122 -81 135 -227 190
-364 137z m97 -87 c59 -59 46 -169 -23 -191 -108 -36 -180 107 -97 191 38 38
82 38 120 0z m58 -255 c2 -12 -3 -17 -17 -17 -12 0 -21 6 -21 13 0 31 32 34
38 4z"/>
<path d="M6825 4409 c-51 -53 -109 -79 -193 -86 -99 -8 -174 16 -229 73 -43
45 -77 56 -101 32 -18 -18 -15 -256 3 -364 19 -106 66 -252 102 -313 160 -274
384 -206 473 143 52 203 46 556 -9 556 -4 0 -25 -19 -46 -41z"/>
</g>
</svg>
