<?xml version="1.0" standalone="no"?>
<!DOCTYPE svg PUBLIC "-//W3C//DTD SVG 20010904//EN"
 "http://www.w3.org/TR/2001/REC-SVG-20010904/DTD/svg10.dtd">
<svg version="1.0" xmlns="http://www.w3.org/2000/svg"
 width="1024.000000pt" height="1024.000000pt" viewBox="0 0 1024.000000 1024.000000"
 preserveAspectRatio="xMidYMid meet">

<g transform="translate(0.000000,1024.000000) scale(0.100000,-0.100000)"
fill="#000000" stroke="none">
<path d="M80 10220 c0 -17 -7 -20 -40 -20 l-40 0 0 -100 c0 -82 3 -100 15
-100 11 0 15 -11 15 -40 l0 -40 65 0 65 0 0 80 0 80 80 0 80 0 0 80 0 80 -120
0 c-113 0 -120 -1 -120 -20z"/>
<path d="M482 10158 c1 -46 3 -64 5 -40 3 34 8 42 24 42 16 0 19 7 19 40 0 36
-2 40 -25 40 -25 0 -25 -1 -23 -82z"/>
<path d="M3748 10153 c6 -2 18 -2 25 0 6 3 1 5 -13 5 -14 0 -19 -2 -12 -5z"/>
<path d="M2643 9960 c0 -25 2 -35 4 -22 2 12 2 32 0 45 -2 12 -4 2 -4 -23z"/>
<path d="M2723 9880 c0 -25 2 -35 4 -22 2 12 2 32 0 45 -2 12 -4 2 -4 -23z"/>
<path d="M2940 9830 c0 -13 11 -13 30 0 12 8 11 10 -7 10 -13 0 -23 -4 -23
-10z"/>
<path d="M320 9680 l0 -80 80 0 c47 0 80 4 80 10 0 6 -18 10 -40 10 l-40 0 0
50 0 50 40 0 c33 0 40 3 40 20 0 18 -7 20 -80 20 l-80 0 0 -80z"/>
<path d="M2483 9720 c0 -25 2 -35 4 -22 2 12 2 32 0 45 -2 12 -4 2 -4 -23z"/>
<path d="M2640 9669 c0 -5 5 -7 10 -4 6 3 10 8 10 11 0 2 -4 4 -10 4 -5 0 -10
-5 -10 -11z"/>
<path d="M1920 9230 c0 -5 7 -10 16 -10 8 0 12 5 9 10 -3 6 -10 10 -16 10 -5
0 -9 -4 -9 -10z"/>
<path d="M1281 8614 c0 -11 3 -14 6 -6 3 7 2 16 -1 19 -3 4 -6 -2 -5 -13z"/>
<path d="M1240 8549 c0 -5 5 -7 10 -4 6 3 10 8 10 11 0 2 -4 4 -10 4 -5 0 -10
-5 -10 -11z"/>
<path d="M968 8163 c7 -3 16 -2 19 1 4 3 -2 6 -13 5 -11 0 -14 -3 -6 -6z"/>
<path d="M830 7989 c0 -5 5 -7 10 -4 6 3 10 8 10 11 0 2 -4 4 -10 4 -5 0 -10
-5 -10 -11z"/>
<path d="M4600 7969 c0 -5 5 -7 10 -4 6 3 10 8 10 11 0 2 -4 4 -10 4 -5 0 -10
-5 -10 -11z"/>
<path d="M4417 7788 c-95 -97 -162 -156 -169 -152 -6 4 -8 3 -5 -3 4 -6 -23
-37 -60 -69 -36 -32 -75 -68 -87 -79 -26 -23 -184 -163 -212 -186 -10 -9 -50
-43 -88 -77 -38 -34 -73 -59 -79 -55 -5 3 -7 1 -3 -5 7 -12 -65 -76 -74 -64
-3 4 -12 8 -20 10 -8 2 -42 20 -75 41 -33 20 -71 42 -85 49 -14 6 -54 30 -90
51 -36 22 -86 52 -112 66 -27 14 -48 29 -48 34 0 4 -6 8 -12 8 -22 0 -188 105
-182 114 3 5 -2 6 -10 3 -27 -11 -17 9 35 69 28 31 56 54 61 51 6 -4 8 -2 5 3
-7 11 58 98 130 173 43 46 46 66 9 56 -17 -4 -227 -18 -297 -20 -9 0 -15 -5
-12 -12 2 -6 -3 -17 -12 -24 -8 -7 -15 -19 -15 -27 0 -8 -4 -11 -10 -8 -5 3
-7 0 -4 -8 5 -15 -53 -139 -68 -145 -4 -2 -6 -8 -3 -13 3 -5 1 -28 -5 -51 -22
-86 -22 -84 -12 -69 7 10 17 -9 35 -70 20 -63 23 -85 14 -92 -7 -5 -4 -6 10
-2 18 5 25 -3 51 -57 16 -35 34 -79 40 -98 5 -19 19 -59 31 -89 12 -30 20 -60
17 -68 -3 -8 -1 -11 4 -8 6 3 10 -2 10 -12 0 -10 7 -31 15 -47 8 -15 12 -32 9
-37 -3 -5 2 -6 10 -3 9 3 16 2 16 -4 0 -5 -7 -12 -15 -16 -8 -3 -15 -10 -15
-16 0 -6 7 -4 16 5 9 9 22 14 28 12 61 -26 200 -78 233 -87 23 -7 40 -17 37
-21 -3 -5 1 -7 8 -4 17 6 330 -100 321 -109 -4 -4 0 -4 9 -1 9 4 26 1 38 -5
22 -12 52 1 383 174 60 31 113 53 119 50 6 -4 8 -3 5 3 -7 11 143 93 168 93 8
0 15 4 15 8 0 13 50 33 63 26 7 -4 8 -3 4 1 -9 11 58 45 89 45 25 0 44 -26 49
-68 8 -58 34 -101 75 -122 23 -12 45 -32 50 -45 5 -14 12 -25 14 -25 3 0 3 7
0 15 -4 8 -3 15 1 15 8 0 48 -21 55 -29 14 -16 122 -45 178 -46 75 -3 85 -9
38 -25 -19 -6 -47 -21 -61 -32 -15 -11 -41 -22 -58 -24 -33 -4 -44 -11 -34
-20 4 -4 13 -1 22 6 20 17 19 5 -2 -21 -30 -35 -47 -57 -71 -91 -159 -225
-151 -261 56 -259 219 2 513 66 670 145 57 29 122 56 122 52 0 -6 -148 -117
-182 -137 -95 -54 -172 -90 -185 -85 -9 4 -11 2 -7 -6 5 -7 0 -9 -14 -6 -12 4
-20 2 -17 -2 3 -5 -14 -14 -37 -21 -24 -6 -59 -17 -78 -24 -85 -31 -362 -62
-604 -69 -121 -4 -126 -6 -126 -71 0 -84 -13 -209 -20 -190 -4 11 -6 -14 -6
-55 l1 -75 57 0 c31 0 54 3 52 6 -4 7 56 19 91 19 11 0 -47 -31 -130 -69 -164
-74 -201 -89 -191 -73 6 11 -9 25 -37 35 -12 4 -20 1 -24 -10 -8 -21 -60 -73
-73 -73 -6 0 -10 -7 -10 -15 0 -18 -11 -19 -30 -2 -12 10 -12 9 -1 -6 12 -16
9 -22 -25 -57 -27 -27 -41 -35 -47 -27 -5 7 -6 4 -3 -8 7 -28 -62 -104 -76
-84 -7 11 -8 10 -4 -4 4 -12 -12 -44 -47 -95 -62 -91 -97 -155 -97 -181 0 -41
61 -57 158 -42 137 22 412 49 357 35 -11 -3 -29 -9 -40 -14 -42 -18 -95 -31
-105 -25 -5 3 -18 1 -27 -5 -15 -9 -14 -10 7 -5 18 4 21 3 10 -3 -8 -5 -39
-15 -67 -23 -29 -7 -53 -16 -53 -21 0 -4 -7 -4 -17 -1 -12 5 -14 3 -8 -7 6
-10 4 -12 -8 -7 -10 3 -17 3 -17 -1 0 -9 -70 -42 -88 -42 -7 0 -12 -5 -12 -11
0 -6 -9 -8 -22 -4 -16 4 -19 3 -9 -3 17 -12 -3 -27 -21 -16 -7 4 -10 4 -6 -1
9 -10 -72 -72 -87 -67 -5 2 -7 0 -3 -4 4 -4 -1 -19 -12 -33 -10 -15 -22 -39
-25 -54 -4 -15 -11 -30 -16 -33 -5 -3 -9 -15 -8 -27 0 -21 1 -21 9 -2 8 18 9
17 9 -7 2 -66 59 -137 172 -214 50 -34 66 -50 57 -57 -9 -6 -8 -7 4 -3 21 6
76 -19 56 -27 -7 -2 -2 -4 12 -4 14 0 52 -10 85 -23 78 -29 205 -24 274 10 25
12 55 23 67 24 12 0 20 3 18 5 -2 2 17 17 44 32 26 16 66 43 89 61 l43 31 142
-71 c79 -39 165 -80 193 -92 27 -11 58 -28 69 -38 11 -9 16 -11 12 -4 -4 6 -5
12 -2 12 8 0 108 -39 126 -48 8 -5 36 -15 62 -22 26 -8 45 -18 42 -22 -3 -4 1
-5 9 -2 8 3 57 -6 108 -19 52 -14 130 -30 174 -36 44 -5 103 -14 130 -17 127
-19 505 -37 625 -30 251 13 465 16 445 6 -17 -9 -17 -9 5 -3 14 4 61 8 104 8
47 1 81 6 84 13 3 11 -9 13 -178 32 -52 6 -122 18 -155 25 -33 8 -102 23 -154
35 -122 27 -231 60 -231 70 0 4 -8 6 -17 4 -10 -2 -76 12 -148 31 -138 38
-434 103 -499 110 -72 8 -50 15 50 15 104 0 403 -17 445 -25 13 -3 76 -8 139
-11 102 -5 113 -4 97 9 -14 11 -15 16 -5 21 7 3 4 4 -8 1 -11 -3 -42 4 -67 15
-48 21 -63 37 -27 27 11 -3 17 -1 14 5 -3 5 -19 6 -35 3 -19 -4 -38 -2 -52 7
-12 8 -42 20 -67 27 l-45 14 32 11 c45 16 62 34 43 46 -8 5 -26 9 -40 9 l-25
-1 28 -11 c38 -15 34 -22 -20 -34 -40 -10 -56 -8 -117 12 -39 13 -74 21 -78
18 -5 -2 -8 -2 -8 2 0 3 10 10 23 16 21 9 21 9 -3 3 -39 -9 -50 -8 -130 14
-73 20 -100 25 -190 39 -35 5 -40 8 -25 14 12 5 4 6 -20 3 -22 -3 -83 2 -135
12 -52 9 -122 21 -155 25 -69 8 243 5 396 -5 191 -11 462 -63 484 -92 5 -8 26
-16 45 -19 l35 -5 -37 11 c-74 21 -37 26 46 6 55 -13 82 -25 79 -33 -2 -6 3
-14 11 -17 11 -4 13 -1 9 10 -5 13 -1 15 23 9 16 -4 32 -12 35 -18 8 -13 11
-13 37 1 13 7 21 20 21 34 l-2 22 -4 -22 c-6 -32 -23 -29 -24 5 -2 35 -5 69
-18 162 -11 79 -14 109 -31 280 -10 93 -35 360 -39 415 -1 11 -6 209 -10 440
-9 419 -24 721 -41 845 -5 36 -10 87 -11 113 -2 27 -6 50 -11 53 -4 3 -8 17
-8 32 0 15 -11 80 -25 146 -13 65 -22 123 -18 129 3 5 1 7 -4 4 -6 -4 -16 13
-23 41 -7 26 -24 71 -37 101 -12 29 -20 57 -17 62 3 5 0 17 -6 26 -9 15 -10
14 -5 -7 l7 -25 -18 24 c-10 14 -26 33 -36 43 -10 10 -16 23 -13 28 3 5 -1 7
-9 4 -9 -3 -20 3 -28 15 -7 12 -20 21 -30 21 -9 0 -19 4 -23 9 -3 5 -19 12
-35 16 -17 4 -28 11 -24 16 3 5 13 5 25 -2 12 -6 23 -8 26 -5 11 11 -42 24
-59 15 -24 -13 -41 -11 -32 3 4 7 3 8 -5 4 -25 -16 -692 159 -674 177 3 4 -4
7 -17 7 -13 0 -50 7 -83 17 -41 11 -54 19 -45 25 9 6 6 7 -8 3 -12 -3 -55 7
-100 24 -44 17 -74 30 -69 31 12 0 -16 20 -30 20 -5 0 -3 -5 5 -11 12 -9 11
-10 -5 -4 -11 4 -40 14 -65 22 -25 8 -59 21 -77 29 -17 8 -35 13 -40 13 -4 -1
-79 -74 -166 -161z m693 -1062 c0 -2 -7 -6 -15 -10 -8 -3 -15 -1 -15 4 0 6 7
10 15 10 8 0 15 -2 15 -4z"/>
<path d="M805 7931 c-3 -6 -17 -11 -31 -11 -13 0 -24 -4 -24 -10 0 -16 40 -12
57 5 8 9 13 18 10 21 -3 3 -8 1 -12 -5z"/>
<path d="M4835 7910 c-19 -8 -19 -9 2 -9 12 -1 25 4 28 9 7 12 -2 12 -30 0z"/>
<path d="M4855 7880 c-16 -7 -17 -9 -3 -9 9 -1 20 4 23 9 7 11 7 11 -20 0z"/>
<path d="M720 7861 c0 -12 5 -21 10 -21 6 0 10 6 10 14 0 8 -4 18 -10 21 -5 3
-10 -3 -10 -14z"/>
<path d="M5037 7833 c-3 -5 11 -9 31 -11 40 -3 40 2 0 12 -15 3 -29 3 -31 -1z"/>
<path d="M2885 7809 c-11 -16 -1 -19 13 -3 7 8 8 14 3 14 -5 0 -13 -5 -16 -11z"/>
<path d="M4400 7799 c0 -5 5 -7 10 -4 6 3 10 8 10 11 0 2 -4 4 -10 4 -5 0 -10
-5 -10 -11z"/>
<path d="M5200 7756 c0 -4 95 -36 107 -35 4 0 -12 9 -37 19 -43 18 -70 24 -70
16z"/>
<path d="M5315 7740 c11 -5 27 -9 35 -9 9 0 8 4 -5 9 -11 5 -27 9 -35 9 -9 0
-8 -4 5 -9z"/>
<path d="M5328 7713 c7 -3 16 -2 19 1 4 3 -2 6 -13 5 -11 0 -14 -3 -6 -6z"/>
<path d="M5668 7673 c7 -3 16 -2 19 1 4 3 -2 6 -13 5 -11 0 -14 -3 -6 -6z"/>
<path d="M2841 7644 c0 -11 3 -14 6 -6 3 7 2 16 -1 19 -3 4 -6 -2 -5 -13z"/>
<path d="M5650 7656 c0 -2 9 -6 20 -9 11 -3 18 -1 14 4 -5 9 -34 13 -34 5z"/>
<path d="M5638 7633 c7 -3 16 -2 19 1 4 3 -2 6 -13 5 -11 0 -14 -3 -6 -6z"/>
<path d="M5930 7566 c0 -2 7 -7 16 -10 8 -3 12 -2 9 4 -6 10 -25 14 -25 6z"/>
<path d="M505 7488 c-4 -16 -11 -28 -16 -28 -5 0 -9 -4 -9 -10 0 -18 16 -10
29 14 8 13 11 30 8 38 -2 7 -8 2 -12 -14z"/>
<path d="M400 7430 c0 -5 4 -10 9 -10 6 0 13 5 16 10 3 6 -1 10 -9 10 -9 0
-16 -4 -16 -10z"/>
<path d="M460 7414 c-11 -12 -10 -18 3 -32 16 -15 17 -14 17 16 0 36 -2 38
-20 16z"/>
<path d="M400 7370 c0 -5 -13 -10 -30 -10 -16 0 -30 -4 -30 -10 0 -5 5 -10 10
-10 16 0 12 -87 -4 -93 -8 -3 -16 -16 -18 -29 -3 -20 -8 -22 -45 -20 l-41 3
-1 -105 c0 -62 4 -106 9 -106 6 0 10 -7 10 -15 0 -8 -4 -15 -10 -15 -5 0 -10
-11 -10 -25 0 -14 5 -25 10 -25 6 0 10 11 10 24 0 14 5 28 10 31 6 3 10 22 10
41 0 19 5 34 10 34 6 0 10 8 10 19 0 10 6 24 14 30 8 7 12 21 9 31 -3 12 0 20
7 20 7 0 10 7 6 16 -3 9 -2 12 5 9 6 -4 13 2 16 14 3 12 9 21 14 21 5 0 9 9 9
20 0 11 5 20 10 20 6 0 10 9 10 20 0 11 5 20 11 20 6 0 8 9 3 23 -16 50 -16
52 -7 41 10 -13 45 -15 36 -1 -3 5 1 14 8 19 11 8 10 9 -3 4 -10 -3 -20 -1
-23 4 -8 13 -25 13 -25 0z"/>
<path d="M2805 7359 c-4 -6 -5 -12 -2 -15 2 -3 7 2 10 11 7 17 1 20 -8 4z"/>
<path d="M6151 7344 c0 -11 3 -14 6 -6 3 7 2 16 -1 19 -3 4 -6 -2 -5 -13z"/>
<path d="M2811 7314 c0 -11 3 -14 6 -6 3 7 2 16 -1 19 -3 4 -6 -2 -5 -13z"/>
<path d="M6131 7314 c0 -11 3 -14 6 -6 3 7 2 16 -1 19 -3 4 -6 -2 -5 -13z"/>
<path d="M2890 7230 c6 -11 13 -20 16 -20 2 0 0 9 -6 20 -6 11 -13 20 -16 20
-2 0 0 -9 6 -20z"/>
<path d="M6152 7170 c0 -19 2 -27 5 -17 2 9 2 25 0 35 -3 9 -5 1 -5 -18z"/>
<path d="M2915 7130 c-3 -5 -1 -10 4 -10 6 0 11 5 11 10 0 6 -2 10 -4 10 -3 0
-8 -4 -11 -10z"/>
<path d="M6182 7030 c0 -8 4 -26 8 -40 6 -20 8 -21 8 -5 0 11 -3 29 -8 40 -5
12 -8 14 -8 5z"/>
<path d="M6200 7031 c0 -6 5 -13 10 -16 6 -3 10 1 10 9 0 9 -4 16 -10 16 -5 0
-10 -4 -10 -9z"/>
<path d="M4517 6979 c7 -7 15 -10 18 -7 3 3 -2 9 -12 12 -14 6 -15 5 -6 -5z"/>
<path d="M4581 6981 c-9 -6 -7 -10 8 -14 12 -3 21 -1 21 3 0 14 -15 19 -29 11z"/>
<path d="M160 6920 c0 -33 3 -40 20 -40 27 0 27 -46 1 -69 -17 -15 -20 -33
-23 -134 -2 -75 1 -116 7 -114 6 2 11 47 13 100 1 54 7 97 12 97 6 0 10 9 10
20 0 11 5 20 10 20 6 0 10 18 10 40 0 22 5 40 10 40 6 0 10 5 10 10 0 6 -9 10
-20 10 -12 0 -20 7 -20 16 0 15 -23 44 -34 44 -3 0 -6 -18 -6 -40z"/>
<path d="M4600 6903 c0 -21 3 -24 9 -14 5 8 7 20 4 28 -8 21 -13 15 -13 -14z"/>
<path d="M2981 6894 c0 -11 3 -14 6 -6 3 7 2 16 -1 19 -3 4 -6 -2 -5 -13z"/>
<path d="M3011 6894 c0 -11 3 -14 6 -6 3 7 2 16 -1 19 -3 4 -6 -2 -5 -13z"/>
<path d="M4382 6894 c-7 -8 -8 -14 -3 -14 10 0 25 19 20 25 -2 1 -10 -3 -17
-11z"/>
<path d="M4647 6833 c-4 -3 -7 -11 -7 -17 0 -6 5 -4 10 4 7 12 12 12 22 2 6
-6 16 -12 22 -12 5 0 1 7 -10 15 -22 16 -28 18 -37 8z"/>
<path d="M4290 6821 c0 -6 4 -13 10 -16 6 -3 7 1 4 9 -7 18 -14 21 -14 7z"/>
<path d="M3228 6763 c7 -3 16 -2 19 1 4 3 -2 6 -13 5 -11 0 -14 -3 -6 -6z"/>
<path d="M3270 6751 c0 -6 4 -13 10 -16 6 -3 7 1 4 9 -7 18 -14 21 -14 7z"/>
<path d="M3308 6743 c7 -3 16 -2 19 1 4 3 -2 6 -13 5 -11 0 -14 -3 -6 -6z"/>
<path d="M4985 6690 c-3 -6 1 -7 9 -4 18 7 21 14 7 14 -6 0 -13 -4 -16 -10z"/>
<path d="M3708 6603 c7 -3 16 -2 19 1 4 3 -2 6 -13 5 -11 0 -14 -3 -6 -6z"/>
<path d="M3708 6573 c7 -3 16 -2 19 1 4 3 -2 6 -13 5 -11 0 -14 -3 -6 -6z"/>
<path d="M3755 6570 c-3 -6 1 -7 9 -4 18 7 21 14 7 14 -6 0 -13 -4 -16 -10z"/>
<path d="M4805 6549 c-4 -6 -4 -13 -1 -16 3 -4 6 -1 6 6 0 8 6 11 16 7 8 -3
12 -2 9 4 -8 13 -22 13 -30 -1z"/>
<path d="M4750 6439 c0 -5 5 -7 10 -4 6 3 10 8 10 11 0 2 -4 4 -10 4 -5 0 -10
-5 -10 -11z"/>
<path d="M113 6360 c0 -25 2 -35 4 -22 2 12 2 32 0 45 -2 12 -4 2 -4 -23z"/>
<path d="M5238 6273 c7 -3 16 -2 19 1 4 3 -2 6 -13 5 -11 0 -14 -3 -6 -6z"/>
<path d="M80 6149 c0 -5 5 -7 10 -4 6 3 10 8 10 11 0 2 -4 4 -10 4 -5 0 -10
-5 -10 -11z"/>
<path d="M4563 6133 c15 -2 39 -2 55 0 15 2 2 4 -28 4 -30 0 -43 -2 -27 -4z"/>
<path d="M4768 6133 c6 -2 18 -2 25 0 6 3 1 5 -13 5 -14 0 -19 -2 -12 -5z"/>
<path d="M4458 6113 c17 -2 47 -2 65 0 17 2 3 4 -33 4 -36 0 -50 -2 -32 -4z"/>
<path d="M4573 6113 c9 -2 23 -2 30 0 6 3 -1 5 -18 5 -16 0 -22 -2 -12 -5z"/>
<path d="M4407 5989 c4 -13 8 -18 11 -10 2 7 -1 18 -6 23 -8 8 -9 4 -5 -13z"/>
<path d="M1331 5984 c0 -11 3 -14 6 -6 3 7 2 16 -1 19 -3 4 -6 -2 -5 -13z"/>
<path d="M1356 5979 c-15 -67 -23 -134 -18 -147 3 -9 1 -13 -4 -10 -12 8 -9
-258 5 -347 29 -189 38 -219 127 -400 46 -93 57 -111 111 -189 18 -25 30 -52
27 -60 -3 -8 -1 -17 5 -21 7 -4 8 1 4 12 -7 21 -13 27 93 -86 38 -41 63 -71
57 -67 -7 4 -13 2 -13 -4 0 -7 7 -9 16 -6 10 4 25 -2 38 -14 44 -42 113 -98
159 -129 26 -18 45 -36 42 -42 -3 -5 0 -6 7 -4 8 3 28 -5 45 -18 26 -19 30
-26 20 -37 -10 -12 -9 -12 5 -1 15 11 22 11 45 -5 16 -10 30 -19 33 -19 14 -1
30 -17 25 -26 -3 -5 1 -6 9 -3 9 3 37 -7 63 -23 79 -48 242 -124 404 -189 54
-22 93 -41 88 -44 -5 -4 6 -6 24 -6 17 0 52 -10 77 -21 25 -12 64 -27 88 -34
30 -9 39 -15 30 -21 -9 -6 -6 -7 8 -3 12 3 55 -5 95 -19 41 -14 115 -37 164
-50 291 -79 354 -97 395 -111 25 -8 77 -21 115 -29 39 -8 120 -27 180 -41 208
-51 681 -144 815 -161 19 -2 58 -9 85 -14 70 -13 268 -38 405 -50 63 -5 165
-15 225 -21 61 -6 130 -12 155 -14 90 -5 807 -5 865 0 33 3 112 10 175 15 240
21 410 45 580 81 52 11 106 22 120 24 14 2 58 13 98 24 40 10 73 19 75 19 1 1
9 3 17 6 8 3 71 22 140 42 69 20 140 43 158 51 19 8 44 12 57 9 13 -3 27 -2
30 4 3 6 -1 7 -9 4 -9 -3 -16 -4 -16 -1 0 3 17 11 38 17 20 7 93 37 162 67 69
31 130 56 136 57 7 1 19 8 28 15 8 7 21 9 28 5 7 -4 10 -4 6 0 -6 8 70 54 96
59 6 1 17 8 24 15 16 14 36 16 27 2 -3 -6 1 -7 10 -3 11 4 13 8 6 13 -7 4 9
19 39 38 56 35 65 38 54 20 -5 -7 -3 -8 5 -4 7 5 10 11 7 14 -8 7 74 62 92 62
7 0 11 4 7 9 -3 5 4 12 15 16 11 3 26 12 33 18 102 95 179 157 187 152 6 -3 7
0 4 9 -3 9 -1 16 5 16 11 0 15 -12 12 -40 -2 -12 0 -13 7 -1 6 7 14 11 19 8 5
-3 9 4 10 16 0 12 -1 16 -4 10 -7 -19 -20 -16 -26 7 -3 10 1 24 9 31 9 7 14 8
14 1 0 -6 -5 -13 -10 -15 -6 -3 -5 -4 2 -3 7 2 13 11 13 22 0 21 35 65 46 59
4 -3 6 3 5 13 0 9 5 16 12 14 6 -1 11 1 10 5 -3 15 14 43 23 37 5 -3 9 2 9 11
0 24 51 96 63 88 6 -3 7 -1 3 5 -6 11 61 144 76 150 4 2 8 8 8 13 0 5 16 42
35 83 19 41 35 80 35 86 0 20 -19 0 -46 -50 -15 -28 -31 -50 -36 -50 -4 0 -8
-5 -8 -11 0 -13 -50 -87 -50 -74 -1 6 -7 -3 -14 -20 -19 -43 -66 -96 -78 -88
-7 3 -8 1 -4 -5 9 -15 -31 -55 -46 -46 -7 4 -8 3 -4 -5 10 -16 -89 -115 -105
-105 -7 4 -9 3 -5 -4 6 -9 -60 -72 -80 -76 -4 0 -20 -14 -36 -29 -15 -16 -32
-26 -37 -23 -5 3 -12 -1 -15 -9 -3 -9 -23 -24 -43 -33 -21 -9 -53 -27 -70 -40
-35 -25 -213 -112 -280 -136 -24 -9 -61 -23 -82 -31 -37 -14 -119 -37 -266
-75 -133 -34 -457 -91 -625 -109 -288 -32 -838 -43 -869 -18 -12 10 -13 9 -7
-1 7 -11 -15 -13 -125 -8 -231 10 -479 34 -495 47 -6 5 -14 6 -17 3 -13 -13
-325 51 -502 103 -122 35 -295 105 -535 215 -36 17 -82 36 -103 44 -38 14 -39
13 -71 -19 -83 -85 -157 -126 -289 -159 -59 -15 -97 -19 -139 -14 -62 6 -200
55 -192 68 3 4 -1 6 -8 3 -7 -3 -24 2 -38 9 -14 8 -49 26 -77 40 -42 19 -52
29 -47 43 5 15 4 15 -4 3 -9 -12 -14 -11 -34 5 -13 11 -26 24 -29 28 -3 5 -8
7 -10 6 -8 -6 -88 45 -83 53 3 4 -2 8 -10 8 -8 0 -30 13 -48 28 l-33 29 -195
-3 c-107 -1 -240 2 -295 7 -55 5 -127 11 -160 13 -100 9 -325 49 -319 58 3 4
-1 5 -9 2 -15 -5 -88 13 -192 48 -67 23 -86 34 -40 24 24 -5 26 -4 12 4 -9 6
-26 9 -36 5 -21 -6 -88 21 -109 45 -8 8 -11 9 -7 3 10 -20 1 -17 -115 42 -98
49 -210 119 -210 132 0 2 5 1 12 -3 7 -4 8 -3 4 4 -4 6 -13 9 -20 6 -14 -5
-256 221 -256 239 0 5 8 3 18 -4 15 -11 15 -11 4 1 -7 8 -17 15 -22 15 -12 0
-90 105 -90 121 0 6 -7 17 -15 24 -9 7 -13 15 -11 18 3 2 -4 16 -14 30 -11 13
-20 29 -20 34 0 6 -7 24 -15 41 -28 61 -66 189 -61 204 3 8 2 12 -3 9 -5 -3
-12 22 -16 57 -3 34 -10 86 -16 116 -5 30 -9 89 -9 130 0 80 -14 126 -24 80z"/>
<path d="M1396 5915 c8 -37 14 -45 14 -19 0 10 -5 26 -10 34 -8 11 -9 7 -4
-15z"/>
<path d="M1300 5775 c0 -5 5 -17 10 -25 5 -8 10 -10 10 -5 0 6 -5 17 -10 25
-5 8 -10 11 -10 5z"/>
<path d="M4380 5670 c-13 -8 -13 -10 2 -10 9 0 20 5 23 10 8 13 -5 13 -25 0z"/>
<path d="M4420 5660 c-9 -6 -10 -10 -3 -10 6 0 15 5 18 10 8 12 4 12 -15 0z"/>
<path d="M4290 5643 c0 -5 5 -15 10 -23 7 -12 9 -10 7 8 -1 19 -17 33 -17 15z"/>
<path d="M6301 5584 c0 -11 3 -14 6 -6 3 7 2 16 -1 19 -3 4 -6 -2 -5 -13z"/>
<path d="M1125 5453 c3 -65 6 -135 5 -155 0 -20 4 -39 10 -43 5 -3 7 -17 4
-31 -3 -13 -1 -31 6 -39 7 -9 10 -30 6 -57 -4 -30 -3 -37 3 -23 9 19 10 18 10
-5 1 -14 11 -59 22 -100 11 -41 22 -87 24 -103 2 -15 10 -39 19 -53 9 -13 14
-29 11 -33 -3 -5 -2 -11 2 -13 16 -6 54 -95 48 -110 -4 -9 -2 -19 4 -23 7 -4
9 1 5 12 -3 10 17 -22 45 -71 28 -49 48 -93 44 -99 -3 -5 -1 -7 4 -4 6 4 16 0
23 -8 7 -8 10 -15 6 -15 -4 0 12 -23 34 -52 23 -28 39 -57 36 -65 -4 -9 0 -13
12 -11 11 2 17 -3 16 -14 -1 -10 2 -16 6 -13 4 2 22 -12 41 -33 19 -20 51 -56
72 -79 33 -36 35 -41 15 -36 -13 3 -20 3 -17 0 3 -4 15 -8 26 -10 30 -4 53
-26 46 -43 -3 -8 0 -14 7 -14 6 0 8 5 5 10 -3 6 -2 10 4 10 5 0 11 -3 13 -7 2
-5 25 -28 53 -53 27 -25 49 -48 47 -52 -1 -5 2 -7 6 -5 5 1 20 -6 33 -16 13
-9 54 -39 91 -66 38 -26 65 -50 62 -53 -3 -3 3 -5 13 -4 10 0 17 -4 16 -10 -1
-6 4 -11 10 -11 7 0 59 -27 117 -60 130 -75 256 -139 335 -169 33 -13 55 -23
49 -24 -15 0 -343 76 -406 95 -73 21 -81 20 -67 -7 7 -13 15 -25 18 -28 3 -3
29 -32 56 -65 48 -56 297 -307 303 -305 2 1 30 -24 63 -54 33 -31 71 -63 84
-72 14 -9 23 -20 20 -24 -3 -5 0 -12 6 -16 8 -5 9 -3 4 6 -12 20 6 9 67 -40
31 -25 57 -51 57 -57 1 -7 8 -13 16 -13 27 0 125 -79 119 -95 -4 -8 -1 -15 6
-15 6 0 8 5 5 10 -3 6 -2 10 4 10 11 0 26 -20 26 -35 0 -5 8 -10 17 -10 10 0
31 -12 47 -27 16 -16 34 -28 41 -28 6 0 8 -5 4 -12 -4 -7 -3 -8 4 -4 11 7 83
-36 115 -68 8 -8 17 -12 21 -9 3 3 8 -2 12 -11 3 -9 10 -16 16 -16 11 0 121
-69 129 -82 3 -5 10 -10 15 -11 5 -1 8 -6 6 -10 -1 -5 2 -6 8 -2 14 9 52 -14
44 -27 -4 -7 -2 -8 5 -4 7 4 59 -20 124 -57 62 -36 151 -85 199 -110 47 -25
85 -47 82 -49 -2 -3 6 -4 19 -3 27 3 25 10 -19 98 -19 37 -31 73 -28 79 4 6 3
8 -3 5 -11 -7 -48 67 -46 91 0 7 -1 11 -5 8 -3 -3 -10 4 -17 17 -24 47 -85
208 -85 225 0 10 -4 22 -8 28 -18 20 -72 203 -88 297 -2 12 -8 42 -13 67 -13
58 -13 73 -1 65 6 -3 7 1 4 9 -3 9 -9 14 -13 12 -4 -3 -7 3 -7 12 -1 9 -6 67
-13 127 -6 61 -12 130 -14 154 l-2 45 -80 23 c-312 91 -404 119 -440 133 -11
4 -40 14 -65 21 -60 17 -284 101 -392 147 -58 24 -83 39 -75 45 8 6 6 7 -5 3
-24 -7 -80 13 -71 27 3 5 1 7 -5 3 -14 -9 -83 25 -75 37 3 6 1 7 -5 3 -14 -9
-83 25 -75 37 3 6 1 7 -5 3 -18 -11 -37 4 -21 16 11 7 10 8 -4 4 -18 -6 -75
19 -127 54 -14 9 -53 35 -87 56 -34 21 -59 43 -56 48 4 5 1 6 -5 2 -20 -12
-276 198 -268 220 3 8 -1 11 -10 7 -7 -3 -14 -1 -14 5 0 5 7 12 15 16 8 3 15
10 15 16 0 6 -7 4 -16 -4 -8 -9 -19 -16 -23 -16 -15 0 -101 103 -94 113 3 5 2
7 -4 4 -5 -3 -23 12 -39 34 -16 22 -42 57 -57 77 -32 40 -61 92 -52 92 3 0 -4
9 -16 21 -13 13 -18 27 -14 42 4 15 3 18 -3 9 -7 -10 -12 -5 -21 20 -7 18 -22
51 -33 72 -12 21 -16 36 -10 32 6 -4 1 15 -12 41 -47 93 -85 228 -100 355 -4
32 -16 58 -28 58 -6 0 -7 -43 -3 -117z"/>
<path d="M1172 5530 c0 -14 2 -19 5 -12 2 6 2 18 0 25 -3 6 -5 1 -5 -13z"/>
<path d="M1181 5474 c0 -11 3 -14 6 -6 3 7 2 16 -1 19 -3 4 -6 -2 -5 -13z"/>
<path d="M1307 5451 c-4 -17 -3 -21 5 -13 5 5 8 16 6 23 -3 8 -7 3 -11 -10z"/>
<path d="M6281 5385 c0 -11 3 -26 8 -34 7 -11 10 -9 16 8 4 13 4 25 1 28 -3 4
-6 -2 -7 -13 -1 -15 -3 -13 -9 6 -7 21 -8 21 -9 5z"/>
<path d="M1554 5279 c-4 -8 -3 -9 5 -5 7 4 15 -2 20 -16 7 -15 10 -17 10 -7 1
23 -25 44 -35 28z"/>
<path d="M1241 5213 c-1 -17 16 -25 25 -12 4 7 3 9 -4 5 -5 -3 -13 0 -15 6 -4
9 -6 10 -6 1z"/>
<path d="M6296 5203 c-6 -14 -5 -15 5 -6 7 7 10 15 7 18 -3 3 -9 -2 -12 -12z"/>
<path d="M1377 5153 c-4 -3 -7 -11 -7 -17 0 -6 5 -5 12 2 6 6 9 14 7 17 -3 3
-9 2 -12 -2z"/>
<path d="M1416 5137 c3 -10 9 -15 12 -12 3 3 0 11 -7 18 -10 9 -11 8 -5 -6z"/>
<path d="M3796 5105 c-9 -26 -7 -32 5 -12 6 10 9 21 6 23 -2 3 -7 -2 -11 -11z"/>
<path d="M1710 5106 c0 -2 7 -7 16 -10 8 -3 12 -2 9 4 -6 10 -25 14 -25 6z"/>
<path d="M1341 5084 c0 -11 3 -14 6 -6 3 7 2 16 -1 19 -3 4 -6 -2 -5 -13z"/>
<path d="M3771 5054 c0 -11 3 -14 6 -6 3 7 2 16 -1 19 -3 4 -6 -2 -5 -13z"/>
<path d="M1161 5034 c0 -11 3 -14 6 -6 3 7 2 16 -1 19 -3 4 -6 -2 -5 -13z"/>
<path d="M1320 5029 c0 -5 5 -7 10 -4 6 3 10 8 10 11 0 2 -4 4 -10 4 -5 0 -10
-5 -10 -11z"/>
<path d="M3796 5017 c3 -10 9 -15 12 -12 3 3 0 11 -7 18 -10 9 -11 8 -5 -6z"/>
<path d="M1142 5000 c0 -14 2 -19 5 -12 2 6 2 18 0 25 -3 6 -5 1 -5 -13z"/>
<path d="M4068 5013 c6 -2 18 -2 25 0 6 3 1 5 -13 5 -14 0 -19 -2 -12 -5z"/>
<path d="M1768 5003 c7 -3 16 -2 19 1 4 3 -2 6 -13 5 -11 0 -14 -3 -6 -6z"/>
<path d="M3948 4983 c7 -3 16 -2 19 1 4 3 -2 6 -13 5 -11 0 -14 -3 -6 -6z"/>
<path d="M1831 4964 c0 -11 3 -14 6 -6 3 7 2 16 -1 19 -3 4 -6 -2 -5 -13z"/>
<path d="M1880 4946 c0 -2 8 -10 18 -17 15 -13 16 -12 3 4 -13 16 -21 21 -21
13z"/>
<path d="M9211 4934 c0 -11 3 -14 6 -6 3 7 2 16 -1 19 -3 4 -6 -2 -5 -13z"/>
<path d="M1421 4914 c0 -11 3 -14 6 -6 3 7 2 16 -1 19 -3 4 -6 -2 -5 -13z"/>
<path d="M3778 4873 c7 -3 16 -2 19 1 4 3 -2 6 -13 5 -11 0 -14 -3 -6 -6z"/>
<path d="M1968 4863 c7 -3 16 -2 19 1 4 3 -2 6 -13 5 -11 0 -14 -3 -6 -6z"/>
<path d="M3785 4850 c-3 -5 1 -10 9 -10 9 0 16 5 16 10 0 6 -4 10 -9 10 -6 0
-13 -4 -16 -10z"/>
<path d="M1211 4834 c0 -11 3 -14 6 -6 3 7 2 16 -1 19 -3 4 -6 -2 -5 -13z"/>
<path d="M9127 4831 c-4 -17 -3 -21 5 -13 5 5 8 16 6 23 -3 8 -7 3 -11 -10z"/>
<path d="M9253 4825 c-3 -9 -3 -18 -1 -21 3 -3 8 4 11 16 6 23 -1 27 -10 5z"/>
<path d="M1510 4795 c-7 -9 -11 -17 -9 -20 3 -2 10 5 17 15 14 24 10 26 -8 5z"/>
<path d="M6391 4784 c0 -11 3 -14 6 -6 3 7 2 16 -1 19 -3 4 -6 -2 -5 -13z"/>
<path d="M2030 4786 c0 -2 7 -7 16 -10 8 -3 12 -2 9 4 -6 10 -25 14 -25 6z"/>
<path d="M2125 4780 c3 -5 8 -10 11 -10 2 0 4 5 4 10 0 6 -5 10 -11 10 -5 0
-7 -4 -4 -10z"/>
<path d="M9050 4776 c0 -9 5 -16 10 -16 6 0 10 4 10 9 0 6 -4 13 -10 16 -5 3
-10 -1 -10 -9z"/>
<path d="M1240 4760 c0 -5 5 -10 11 -10 5 0 7 5 4 10 -3 6 -8 10 -11 10 -2 0
-4 -4 -4 -10z"/>
<path d="M2075 4760 c3 -5 8 -10 11 -10 2 0 4 5 4 10 0 6 -5 10 -11 10 -5 0
-7 -4 -4 -10z"/>
<path d="M2100 4756 c0 -2 7 -6 15 -10 8 -3 15 -1 15 4 0 6 -7 10 -15 10 -8 0
-15 -2 -15 -4z"/>
<path d="M2238 4703 c7 -3 16 -2 19 1 4 3 -2 6 -13 5 -11 0 -14 -3 -6 -6z"/>
<path d="M9146 4673 c-6 -14 -5 -15 5 -6 7 7 10 15 7 18 -3 3 -9 -2 -12 -12z"/>
<path d="M9181 4674 c0 -11 3 -14 6 -6 3 7 2 16 -1 19 -3 4 -6 -2 -5 -13z"/>
<path d="M5585 4660 c27 -12 43 -12 25 0 -8 5 -22 9 -30 9 -10 0 -8 -3 5 -9z"/>
<path d="M5738 4663 c7 -3 16 -2 19 1 4 3 -2 6 -13 5 -11 0 -14 -3 -6 -6z"/>
<path d="M5690 4656 c0 -2 7 -7 16 -10 8 -3 12 -2 9 4 -6 10 -25 14 -25 6z"/>
<path d="M5875 4630 c-19 -8 -19 -9 2 -9 12 -1 25 4 28 9 7 12 -2 12 -30 0z"/>
<path d="M5788 4623 c7 -3 16 -2 19 1 4 3 -2 6 -13 5 -11 0 -14 -3 -6 -6z"/>
<path d="M9100 4608 c-29 -44 -32 -53 -6 -23 22 26 32 45 23 45 -1 0 -9 -10
-17 -22z"/>
<path d="M2418 4613 c6 -2 18 -2 25 0 6 3 1 5 -13 5 -14 0 -19 -2 -12 -5z"/>
<path d="M5748 4613 c7 -3 16 -2 19 1 4 3 -2 6 -13 5 -11 0 -14 -3 -6 -6z"/>
<path d="M6015 4610 c3 -5 11 -10 16 -10 6 0 7 5 4 10 -3 6 -11 10 -16 10 -6
0 -7 -4 -4 -10z"/>
<path d="M5917 4589 c5 -20 18 -25 27 -11 2 4 -4 13 -14 19 -15 10 -17 9 -13
-8z"/>
<path d="M1843 4581 c1 -11 7 -17 14 -14 8 3 13 -3 14 -13 0 -12 3 -14 6 -6 3
8 -4 22 -15 33 -20 18 -21 18 -19 0z"/>
<path d="M2538 4583 c7 -3 16 -2 19 1 4 3 -2 6 -13 5 -11 0 -14 -3 -6 -6z"/>
<path d="M5880 4580 c0 -5 7 -10 16 -10 8 0 12 5 9 10 -3 6 -10 10 -16 10 -5
0 -9 -4 -9 -10z"/>
<path d="M3692 4550 c0 -14 2 -19 5 -12 2 6 2 18 0 25 -3 6 -5 1 -5 -13z"/>
<path d="M5992 4555 c-17 -19 -1 -19 24 0 14 11 15 14 4 14 -8 0 -21 -6 -28
-14z"/>
<path d="M6123 4556 c0 -8 6 -12 14 -9 7 3 10 9 7 14 -8 14 -21 11 -21 -5z"/>
<path d="M8890 4546 c7 -7 13 -7 20 0 6 6 3 10 -10 10 -13 0 -16 -4 -10 -10z"/>
<path d="M2760 4539 c0 -5 5 -7 10 -4 6 3 10 8 10 11 0 2 -4 4 -10 4 -5 0 -10
-5 -10 -11z"/>
<path d="M2813 4543 c9 -2 23 -2 30 0 6 3 -1 5 -18 5 -16 0 -22 -2 -12 -5z"/>
<path d="M3721 4534 c0 -11 3 -14 6 -6 3 7 2 16 -1 19 -3 4 -6 -2 -5 -13z"/>
<path d="M6145 4530 c-3 -5 -1 -10 4 -10 6 0 11 5 11 10 0 6 -2 10 -4 10 -3 0
-8 -4 -11 -10z"/>
<path d="M2798 4523 c7 -3 16 -2 19 1 4 3 -2 6 -13 5 -11 0 -14 -3 -6 -6z"/>
<path d="M2873 4513 c9 -2 25 -2 35 0 9 3 1 5 -18 5 -19 0 -27 -2 -17 -5z"/>
<path d="M6090 4516 c0 -2 9 -6 20 -9 11 -3 18 -1 14 4 -5 9 -34 13 -34 5z"/>
<path d="M9031 4474 c0 -11 3 -14 6 -6 3 7 2 16 -1 19 -3 4 -6 -2 -5 -13z"/>
<path d="M3620 4476 c0 -2 7 -9 15 -16 9 -7 15 -8 15 -2 0 5 -7 12 -15 16 -8
3 -15 4 -15 2z"/>
<path d="M8796 4468 c3 -5 10 -6 15 -3 13 9 11 12 -6 12 -8 0 -12 -4 -9 -9z"/>
<path d="M3785 4460 c3 -5 8 -10 11 -10 2 0 4 5 4 10 0 6 -5 10 -11 10 -5 0
-7 -4 -4 -10z"/>
<path d="M6298 4453 c7 -3 16 -2 19 1 4 3 -2 6 -13 5 -11 0 -14 -3 -6 -6z"/>
<path d="M3840 4430 c0 -19 5 -24 23 -25 21 -2 21 -3 -3 18 -11 9 -20 12 -20
7z"/>
<path d="M0 4215 c0 -208 1 -215 20 -215 18 0 20 -7 20 -60 0 -53 2 -60 20
-60 11 0 20 6 20 13 1 6 8 -1 17 -17 14 -28 16 -28 27 -10 15 26 22 294 7 294
-6 0 -11 7 -11 15 0 8 -9 23 -20 32 -11 10 -20 27 -20 39 0 12 -7 27 -15 34
-8 7 -15 24 -15 39 0 26 -34 111 -45 111 -3 0 -5 -97 -5 -215z m80 -175 c0
-22 -4 -40 -10 -40 -5 0 -10 18 -10 40 0 22 5 40 10 40 6 0 10 -18 10 -40z"/>
<path d="M1450 4400 c0 -5 5 -10 11 -10 5 0 7 5 4 10 -3 6 -8 10 -11 10 -2 0
-4 -4 -4 -10z"/>
<path d="M3755 4400 c-4 -6 -16 -8 -28 -4 -27 8 -21 1 13 -16 14 -7 22 -9 18
-5 -4 5 -3 14 3 22 6 7 9 13 6 13 -3 0 -9 -5 -12 -10z"/>
<path d="M1887 4379 c7 -7 15 -10 18 -7 3 3 -2 9 -12 12 -14 6 -15 5 -6 -5z"/>
<path d="M1938 4383 c7 -3 16 -2 19 1 4 3 -2 6 -13 5 -11 0 -14 -3 -6 -6z"/>
<path d="M8650 4386 c0 -2 7 -7 16 -10 8 -3 12 -2 9 4 -6 10 -25 14 -25 6z"/>
<path d="M1460 4365 c-7 -9 -8 -15 -2 -15 5 0 12 7 16 15 3 8 4 15 2 15 -2 0
-9 -7 -16 -15z"/>
<path d="M1955 4340 c3 -5 8 -10 11 -10 2 0 4 5 4 10 0 6 -5 10 -11 10 -5 0
-7 -4 -4 -10z"/>
<path d="M8875 4340 c-3 -5 -1 -10 4 -10 6 0 11 5 11 10 0 6 -2 10 -4 10 -3 0
-8 -4 -11 -10z"/>
<path d="M2030 4310 c8 -5 20 -10 25 -10 6 0 3 5 -5 10 -8 5 -19 10 -25 10 -5
0 -3 -5 5 -10z"/>
<path d="M3870 4300 c-8 -5 -10 -10 -5 -10 6 0 17 5 25 10 8 5 11 10 5 10 -5
0 -17 -5 -25 -10z"/>
<path d="M8814 4276 c-24 -24 -29 -36 -23 -51 6 -17 8 -17 8 -3 1 10 15 30 31
45 29 25 39 44 23 42 -5 -1 -22 -15 -39 -33z"/>
<path d="M1555 4270 c10 -11 20 -20 22 -20 2 0 -2 9 -9 20 -7 11 -17 20 -22
20 -5 0 -1 -9 9 -20z"/>
<path d="M4308 4283 c7 -3 16 -2 19 1 4 3 -2 6 -13 5 -11 0 -14 -3 -6 -6z"/>
<path d="M1527 4249 c7 -7 15 -10 18 -7 3 3 -2 9 -12 12 -14 6 -15 5 -6 -5z"/>
<path d="M9040 4250 c0 -5 -10 -10 -22 -10 -30 0 -54 -15 -39 -24 6 -4 11 -2
11 3 0 6 5 11 12 11 6 0 1 -11 -12 -25 -13 -14 -29 -25 -37 -25 -7 0 -13 -6
-13 -14 0 -8 -7 -17 -16 -20 -8 -3 -13 -2 -10 2 7 11 -31 8 -41 -3 -5 -4 -2
-5 5 -1 22 13 13 -10 -15 -36 -41 -37 -92 -70 -127 -82 -18 -6 -32 -15 -33
-20 -2 -11 -103 -67 -125 -69 -9 -1 -16 -5 -15 -9 1 -5 -35 -29 -80 -53 -46
-24 -83 -42 -83 -38 0 3 -8 0 -17 -8 -16 -14 -131 -75 -143 -77 -3 0 -21 -7
-40 -16 -19 -8 -39 -12 -43 -9 -5 3 -14 -2 -20 -10 -13 -16 -47 -29 -272 -107
-194 -66 -244 -82 -255 -75 -4 3 -10 1 -12 -5 -5 -15 -333 -90 -569 -130 -68
-12 -135 -23 -149 -25 -14 -3 -60 -8 -103 -11 -44 -4 -81 -12 -83 -18 -2 -6
-15 -74 -29 -151 -23 -123 -94 -372 -115 -400 -4 -5 -17 -37 -29 -69 -28 -76
-88 -188 -151 -280 -36 -55 -46 -76 -37 -85 14 -14 30 -15 22 -1 -7 11 35 31
49 23 4 -3 11 -1 15 4 5 9 96 53 108 53 2 0 1 -5 -3 -12 -5 -8 -2 -9 10 -5 10
4 21 7 24 7 4 0 1 4 -6 9 -9 5 6 16 49 35 51 22 64 24 78 14 14 -11 14 -11 3
3 -10 14 -6 18 31 33 23 9 51 16 60 16 10 0 16 4 13 9 -8 12 40 32 61 25 13
-4 15 -3 5 4 -10 6 -1 15 35 30 26 12 90 44 141 71 51 28 90 44 86 38 -3 -7 1
-5 8 4 7 9 36 29 63 43 28 15 75 43 105 61 30 19 63 34 73 35 9 0 17 7 17 16
0 11 5 14 17 10 10 -4 14 -4 10 0 -4 4 16 21 44 38 68 41 74 45 143 91 56 38
59 39 72 20 8 -10 14 -14 14 -8 0 7 -5 15 -10 18 -12 7 -4 25 11 25 6 0 7 -6
3 -12 -4 -8 -3 -10 2 -5 5 5 9 12 9 17 0 9 119 95 152 109 11 6 24 15 28 20 3
6 15 16 27 22 16 9 19 8 12 -3 -4 -7 11 6 34 30 26 26 47 40 55 36 6 -4 9 -4
5 1 -11 11 34 44 52 37 8 -3 12 -2 8 3 -9 9 -2 16 84 83 69 53 85 62 72 40 -4
-8 -3 -10 2 -5 5 5 9 12 9 17 0 18 49 50 69 45 12 -3 15 -2 9 1 -25 11 -13 26
15 20 20 -5 23 -4 12 4 -13 9 -12 13 9 30 13 11 30 20 39 20 8 0 13 3 9 6 -9
9 97 100 126 108 16 4 24 11 21 20 -3 7 5 20 18 29 13 8 48 38 77 66 30 27 59
47 64 44 6 -3 7 -2 4 4 -7 11 122 139 136 135 4 -1 6 2 3 7 -7 11 19 33 28 23
4 -4 6 -2 4 3 -5 16 29 58 41 51 6 -4 9 -1 6 7 -3 7 9 27 27 44 49 47 88 92
88 103 0 6 5 10 10 10 6 0 10 5 10 10 0 6 -4 10 -10 10 -5 0 -10 -4 -10 -10z"/>
<path d="M2127 4229 c7 -7 15 -10 18 -7 3 3 -2 9 -12 12 -14 6 -15 5 -6 -5z"/>
<path d="M8924 4225 c-9 -22 1 -29 15 -11 8 10 9 16 1 21 -5 3 -13 -1 -16 -10z"/>
<path d="M6435 4220 c11 -5 27 -9 35 -9 9 0 8 4 -5 9 -11 5 -27 9 -35 9 -9 0
-8 -4 5 -9z"/>
<path d="M6518 4223 c7 -3 16 -2 19 1 4 3 -2 6 -13 5 -11 0 -14 -3 -6 -6z"/>
<path d="M8747 4215 c-10 -7 -14 -16 -9 -19 5 -3 15 1 22 9 17 21 9 27 -13 10z"/>
<path d="M1610 4216 c0 -2 7 -9 15 -16 9 -7 15 -8 15 -2 0 5 -7 12 -15 16 -8
3 -15 4 -15 2z"/>
<path d="M5088 4193 c7 -3 16 -2 19 1 4 3 -2 6 -13 5 -11 0 -14 -3 -6 -6z"/>
<path d="M8691 4169 c17 -11 39 -12 39 -1 0 4 -12 8 -27 9 -19 1 -22 -1 -12
-8z"/>
<path d="M9015 4170 c-3 -5 -1 -10 4 -10 6 0 11 5 11 10 0 6 -2 10 -4 10 -3 0
-8 -4 -11 -10z"/>
<path d="M8801 4149 c10 -20 24 -25 33 -11 2 4 -6 12 -20 19 -21 10 -23 9 -13
-8z"/>
<path d="M6858 4143 c7 -3 16 -2 19 1 4 3 -2 6 -13 5 -11 0 -14 -3 -6 -6z"/>
<path d="M8625 4120 c3 -5 8 -10 11 -10 2 0 4 5 4 10 0 6 -5 10 -11 10 -5 0
-7 -4 -4 -10z"/>
<path d="M8800 4119 c0 -4 7 -12 15 -19 11 -9 15 -9 15 -1 0 6 10 16 23 20 18
8 16 9 -15 8 -21 -1 -38 -5 -38 -8z"/>
<path d="M8947 4106 c-16 -13 -16 -14 0 -27 12 -10 15 -11 9 -1 -4 7 -2 19 4
27 15 18 11 19 -13 1z"/>
<path d="M5676 4099 c3 -5 0 -9 -7 -9 -7 0 -10 -2 -7 -5 3 -3 16 -2 28 3 l24
9 -22 5 c-12 4 -20 2 -16 -3z"/>
<path d="M1685 4090 c-3 -6 1 -7 9 -4 18 7 21 14 7 14 -6 0 -13 -4 -16 -10z"/>
<path d="M5528 4093 c7 -3 16 -2 19 1 4 3 -2 6 -13 5 -11 0 -14 -3 -6 -6z"/>
<path d="M8601 4091 c-10 -7 -7 -9 12 -8 15 1 27 5 27 10 0 10 -22 9 -39 -2z"/>
<path d="M6608 4083 c7 -3 16 -2 19 1 4 3 -2 6 -13 5 -11 0 -14 -3 -6 -6z"/>
<path d="M6673 4083 c9 -2 25 -2 35 0 9 3 1 5 -18 5 -19 0 -27 -2 -17 -5z"/>
<path d="M8787 4077 c3 -5 -3 -7 -13 -3 -29 9 -45 -6 -26 -24 14 -13 15 -12 9
3 -5 15 -3 17 12 12 10 -3 23 1 29 8 9 10 8 14 -3 14 -8 0 -12 -5 -8 -10z"/>
<path d="M8515 4050 c-3 -5 -1 -10 4 -10 6 0 11 5 11 10 0 6 -2 10 -4 10 -3 0
-8 -4 -11 -10z"/>
<path d="M7788 4043 c7 -3 16 -2 19 1 4 3 -2 6 -13 5 -11 0 -14 -3 -6 -6z"/>
<path d="M8500 4009 c0 -5 5 -7 10 -4 6 3 10 8 10 11 0 2 -4 4 -10 4 -5 0 -10
-5 -10 -11z"/>
<path d="M5888 3993 c7 -3 16 -2 19 1 4 3 -2 6 -13 5 -11 0 -14 -3 -6 -6z"/>
<path d="M7378 3993 c7 -3 16 -2 19 1 4 3 -2 6 -13 5 -11 0 -14 -3 -6 -6z"/>
<path d="M8635 3990 c6 -10 3 -12 -12 -8 -13 3 -24 -1 -32 -13 -7 -12 -7 -19
-1 -19 5 0 10 5 10 10 0 6 9 10 19 10 24 0 36 16 20 26 -8 5 -9 3 -4 -6z"/>
<path d="M5928 3983 c7 -3 16 -2 19 1 4 3 -2 6 -13 5 -11 0 -14 -3 -6 -6z"/>
<path d="M6058 3983 c7 -3 16 -2 19 1 4 3 -2 6 -13 5 -11 0 -14 -3 -6 -6z"/>
<path d="M6150 3981 c11 -7 -2 -11 -50 -14 l-65 -4 65 1 c36 1 64 5 63 11 -1
5 -7 11 -15 13 -9 2 -8 0 2 -7z"/>
<path d="M7178 3983 c7 -3 16 -2 19 1 4 3 -2 6 -13 5 -11 0 -14 -3 -6 -6z"/>
<path d="M8370 3981 c0 -5 -8 -12 -17 -14 -17 -4 -17 -5 0 -6 22 -1 23 -21 0
-21 -9 0 -14 -3 -10 -6 3 -3 15 -3 27 1 18 6 19 9 8 23 -11 13 -11 15 4 9 12
-4 15 -2 11 9 -6 16 -23 19 -23 5z"/>
<path d="M5973 3973 c9 -2 25 -2 35 0 9 3 1 5 -18 5 -19 0 -27 -2 -17 -5z"/>
<path d="M6378 3973 c12 -2 32 -2 45 0 12 2 2 4 -23 4 -25 0 -35 -2 -22 -4z"/>
<path d="M6220 3960 c-20 -6 -21 -8 -5 -8 11 0 29 3 40 8 25 11 -1 11 -35 0z"/>
<path d="M7188 3963 c12 -2 32 -2 45 0 12 2 2 4 -23 4 -25 0 -35 -2 -22 -4z"/>
<path d="M6305 3950 c-12 -5 1 -6 35 -3 30 3 57 7 59 9 9 8 -75 2 -94 -6z"/>
<path d="M6798 3953 c7 -3 16 -2 19 1 4 3 -2 6 -13 5 -11 0 -14 -3 -6 -6z"/>
<path d="M8317 3945 c-4 -8 -3 -16 1 -19 4 -3 9 4 9 15 2 23 -3 25 -10 4z"/>
<path d="M6968 3943 c6 -2 18 -2 25 0 6 3 1 5 -13 5 -14 0 -19 -2 -12 -5z"/>
<path d="M8421 3901 c-10 -6 -10 -10 -1 -16 8 -5 6 -12 -6 -26 -16 -18 -16
-19 -1 -13 9 3 17 10 17 14 0 5 8 11 18 13 16 4 16 5 0 6 -10 0 -18 5 -18 10
0 5 8 12 18 14 12 3 13 5 2 6 -8 0 -21 -3 -29 -8z"/>
<path d="M3388 3883 c7 -3 16 -2 19 1 4 3 -2 6 -13 5 -11 0 -14 -3 -6 -6z"/>
<path d="M8198 3883 c7 -3 16 -2 19 1 4 3 -2 6 -13 5 -11 0 -14 -3 -6 -6z"/>
<path d="M3418 3853 c6 -2 18 -2 25 0 6 3 1 5 -13 5 -14 0 -19 -2 -12 -5z"/>
<path d="M8158 3853 c6 -2 18 -2 25 0 6 3 1 5 -13 5 -14 0 -19 -2 -12 -5z"/>
<path d="M113 3760 c0 -47 2 -66 4 -42 2 23 2 61 0 85 -2 23 -4 4 -4 -43z"/>
<path d="M8166 3831 c-4 -7 -5 -15 -2 -18 9 -9 19 4 14 18 -4 11 -6 11 -12 0z"/>
<path d="M8285 3829 c-17 -8 -15 -8 7 -4 19 4 27 1 24 -7 -1 -7 -1 -10 1 -6 2
4 12 4 21 1 13 -4 12 -2 -3 10 -23 19 -23 19 -50 6z"/>
<path d="M8045 3820 c-3 -5 -1 -10 4 -10 6 0 11 5 11 10 0 6 -2 10 -4 10 -3 0
-8 -4 -11 -10z"/>
<path d="M8008 3803 c7 -3 16 -2 19 1 4 3 -2 6 -13 5 -11 0 -14 -3 -6 -6z"/>
<path d="M8244 3780 c0 -10 6 -16 13 -13 7 3 13 9 13 13 0 4 -6 10 -13 13 -7
3 -13 -3 -13 -13z"/>
<path d="M8689 3783 c-13 -16 -12 -17 4 -4 9 7 17 15 17 17 0 8 -8 3 -21 -13z"/>
<path d="M7996 3778 c3 -4 17 -8 31 -8 15 0 23 3 20 7 -10 9 -56 10 -51 1z"/>
<path d="M8100 3750 c8 -5 24 -10 34 -10 26 0 18 6 -19 14 -22 5 -26 4 -15 -4z"/>
<path d="M7796 3731 c-4 -5 3 -7 14 -4 23 6 26 13 6 13 -8 0 -17 -4 -20 -9z"/>
<path d="M8085 3710 c-3 -6 1 -7 9 -4 18 7 21 14 7 14 -6 0 -13 -4 -16 -10z"/>
<path d="M7808 3703 c6 -2 18 -2 25 0 6 3 1 5 -13 5 -14 0 -19 -2 -12 -5z"/>
<path d="M7740 3696 c0 -2 7 -7 16 -10 8 -3 12 -2 9 4 -6 10 -25 14 -25 6z"/>
<path d="M7878 3673 c6 -2 18 -2 25 0 6 3 1 5 -13 5 -14 0 -19 -2 -12 -5z"/>
<path d="M7980 3666 c7 -7 13 -7 20 0 6 6 3 10 -10 10 -13 0 -16 -4 -10 -10z"/>
<path d="M7890 3656 c0 -2 9 -6 20 -9 11 -3 18 -1 14 4 -5 9 -34 13 -34 5z"/>
<path d="M7948 3653 c7 -3 16 -2 19 1 4 3 -2 6 -13 5 -11 0 -14 -3 -6 -6z"/>
<path d="M3686 3513 c2 -126 14 -251 30 -299 5 -16 4 -16 -5 -4 -7 9 -11 11
-11 3 0 -7 7 -16 16 -21 12 -6 15 -18 12 -36 -3 -14 -2 -26 2 -26 11 0 40 -87
40 -117 0 -13 4 -23 10 -23 5 0 7 -7 4 -15 -4 -8 -2 -15 4 -15 5 0 15 -21 22
-47 7 -27 16 -52 20 -58 4 -5 13 -26 20 -45 8 -19 26 -61 42 -94 15 -32 26
-62 23 -66 -2 -3 5 -14 16 -24 12 -10 18 -24 15 -32 -3 -8 -2 -13 3 -10 5 3
12 -1 15 -10 4 -10 2 -13 -7 -9 -6 4 -5 1 3 -7 20 -17 63 -78 55 -78 -3 0 13
-23 35 -51 40 -50 44 -60 41 -89 -2 -12 0 -12 7 -2 7 11 15 5 31 -22 13 -20
27 -36 33 -36 6 0 8 -7 4 -15 -3 -8 -1 -14 3 -12 5 1 29 -17 54 -40 25 -24 50
-43 56 -43 5 0 14 -6 18 -12 9 -15 69 -48 87 -48 6 0 12 9 12 19 0 11 -3 18
-6 16 -8 -5 -91 221 -87 237 2 7 2 9 -1 4 -2 -5 -15 22 -28 60 -23 65 -24 70
-7 81 10 7 25 18 33 26 32 29 39 28 65 -13 14 -22 23 -46 19 -52 -4 -6 -3 -8
3 -5 6 4 15 -11 22 -32 14 -48 14 -54 -1 -45 -7 4 -8 3 -4 -4 4 -6 13 -9 20
-6 12 5 41 -45 36 -62 -1 -4 2 -10 7 -13 5 -3 30 -38 55 -78 26 -39 62 -89 82
-111 20 -21 32 -42 28 -46 -4 -4 -2 -7 3 -6 22 5 29 -1 15 -11 -13 -9 -13 -10
0 -6 8 2 30 -4 48 -15 37 -22 105 -41 96 -27 -3 5 -1 9 3 9 8 0 73 85 73 95 0
3 8 18 18 35 l19 30 1 -29 c1 -44 29 -97 58 -110 32 -14 161 -14 205 0 19 7
41 18 50 26 9 7 22 12 30 10 8 -2 11 -2 7 0 -15 9 -8 25 8 19 9 -3 12 -2 8 5
-3 6 2 20 13 32 10 12 25 34 33 50 15 31 35 37 25 8 -4 -14 2 -26 25 -43 20
-15 30 -29 26 -40 -2 -10 -1 -16 3 -13 4 2 15 -11 24 -30 29 -61 85 -57 163
14 42 38 157 199 186 260 13 28 28 49 34 46 7 -2 10 4 7 13 -6 26 35 110 63
129 35 22 98 8 102 -24 3 -20 -52 -161 -67 -173 -6 -5 -12 -19 -54 -133 -18
-50 -19 -59 -7 -68 8 -5 24 -7 35 -4 11 3 25 7 31 8 5 2 23 15 39 29 16 15 32
25 37 22 5 -3 7 -1 6 3 -2 5 12 24 29 42 18 18 49 52 69 77 31 38 39 42 53 32
14 -11 14 -11 3 4 -16 20 1 63 20 52 6 -4 8 -3 4 4 -3 6 -2 13 3 17 5 3 14 -3
20 -12 6 -10 11 -15 11 -10 0 4 -5 16 -12 26 -9 15 -8 22 4 34 9 9 19 13 23 9
5 -4 5 -2 2 4 -4 7 20 63 52 125 65 125 134 287 152 352 6 23 17 56 24 72 7
17 22 75 35 130 12 55 26 116 31 135 5 19 5 38 1 42 -9 9 -265 -2 -282 -12 -6
-3 -28 -58 -50 -122 -38 -110 -39 -118 -31 -186 7 -59 6 -84 -9 -139 -37 -136
-48 -160 -65 -134 -3 5 -34 19 -69 31 -58 19 -70 20 -132 9 -87 -15 -140 -39
-196 -88 -37 -33 -49 -53 -68 -113 -13 -40 -28 -76 -34 -80 -6 -4 -8 -10 -4
-13 7 -8 -16 -91 -36 -130 l-14 -27 -14 22 c-23 39 -103 72 -173 71 -78 0
-129 -25 -187 -90 l-42 -47 -28 31 c-42 48 -137 95 -195 96 -50 1 -132 -28
-166 -59 -18 -16 -20 -15 -33 3 -8 11 -19 38 -25 60 -6 22 -15 47 -20 55 -27
44 -59 126 -54 137 2 8 1 12 -4 9 -9 -6 -51 65 -51 88 0 9 -8 16 -20 16 -11 0
-20 4 -20 8 0 5 -16 17 -35 28 -19 10 -30 21 -26 24 5 3 -22 6 -61 8 -55 2
-156 -10 -261 -31 -5 -1 -18 27 -28 62 -14 49 -18 94 -17 195 1 72 -2 138 -7
146 -5 8 -10 20 -10 25 -1 9 -25 66 -47 109 -18 34 -86 241 -90 270 -3 28 -7
30 -108 57 -58 15 -110 28 -115 28 -7 1 -10 -49 -9 -136z m1685 -1335 c11 -21
11 -22 -4 -9 -10 7 -17 17 -17 22 0 15 9 10 21 -13z"/>
<path d="M8460 3640 c-9 -6 -10 -10 -3 -10 6 0 15 5 18 10 8 12 4 12 -15 0z"/>
<path d="M8430 3616 c0 -2 7 -7 16 -10 8 -3 12 -2 9 4 -6 10 -25 14 -25 6z"/>
<path d="M7690 3580 c13 -8 12 -10 -4 -10 -11 0 -17 -2 -14 -5 3 -4 18 -3 34
1 25 6 26 8 9 15 -28 11 -43 10 -25 -1z"/>
<path d="M3991 3570 c-11 -6 -11 -11 -2 -21 6 -8 26 -36 44 -64 76 -119 265
-353 286 -354 7 -1 11 -7 8 -15 -4 -9 -1 -13 6 -11 16 6 51 -21 43 -33 -3 -5
2 -16 12 -23 15 -13 16 -12 3 4 -21 27 1 20 39 -13 19 -16 41 -29 48 -30 7 0
10 -4 7 -10 -3 -5 0 -7 8 -4 8 3 50 -11 95 -31 44 -19 87 -35 95 -35 25 0 163
47 190 64 43 29 46 66 37 409 0 4 -12 7 -27 7 -18 0 -23 3 -15 8 7 5 -5 8 -28
6 -22 -1 -86 7 -142 17 -57 10 -119 21 -138 24 -188 30 -532 99 -549 110 -4 2
-13 0 -20 -5z"/>
<path d="M7628 3573 c6 -2 18 -2 25 0 6 3 1 5 -13 5 -14 0 -19 -2 -12 -5z"/>
<path d="M4853 3563 c9 -2 23 -2 30 0 6 3 -1 5 -18 5 -16 0 -22 -2 -12 -5z"/>
<path d="M8382 3556 c7 -8 15 -12 17 -11 5 6 -10 25 -20 25 -5 0 -4 -6 3 -14z"/>
<path d="M8360 3540 c0 -5 5 -10 11 -10 5 0 7 5 4 10 -3 6 -8 10 -11 10 -2 0
-4 -4 -4 -10z"/>
<path d="M8278 3483 c7 -3 16 -2 19 1 4 3 -2 6 -13 5 -11 0 -14 -3 -6 -6z"/>
<path d="M7308 3473 c7 -3 16 -2 19 1 4 3 -2 6 -13 5 -11 0 -14 -3 -6 -6z"/>
<path d="M8299 3463 c-13 -16 -12 -17 4 -4 9 7 17 15 17 17 0 8 -8 3 -21 -13z"/>
<path d="M3583 3405 c0 -22 2 -30 4 -17 2 12 2 30 0 40 -3 9 -5 -1 -4 -23z"/>
<path d="M7078 3423 c7 -3 16 -2 19 1 4 3 -2 6 -13 5 -11 0 -14 -3 -6 -6z"/>
<path d="M3551 3404 c0 -11 3 -14 6 -6 3 7 2 16 -1 19 -3 4 -6 -2 -5 -13z"/>
<path d="M6888 3413 c7 -3 16 -2 19 1 4 3 -2 6 -13 5 -11 0 -14 -3 -6 -6z"/>
<path d="M240 3381 c0 -12 5 -21 10 -21 6 0 10 6 10 14 0 8 -4 18 -10 21 -5 3
-10 -3 -10 -14z"/>
<path d="M8138 3382 c-16 -17 -16 -18 1 -18 9 0 18 8 18 18 2 21 2 21 -19 0z"/>
<path d="M8206 3385 c-11 -8 -15 -15 -9 -15 6 0 16 7 23 15 16 19 11 19 -14 0z"/>
<path d="M3571 3344 c0 -11 3 -14 6 -6 3 7 2 16 -1 19 -3 4 -6 -2 -5 -13z"/>
<path d="M5295 3355 c-7 -4 -7 -51 0 -146 l10 -142 45 -38 c66 -57 137 -89
197 -89 104 0 286 104 383 219 37 43 45 49 59 38 14 -10 14 -10 3 4 -10 13 -6
24 23 62 19 25 35 50 35 55 0 5 -93 12 -207 16 -115 4 -221 9 -238 11 -63 6
-300 14 -310 10z"/>
<path d="M3616 3337 c3 -10 9 -15 12 -12 3 3 0 11 -7 18 -10 9 -11 8 -5 -6z"/>
<path d="M2426 3303 c-6 -14 -5 -15 5 -6 7 7 10 15 7 18 -3 3 -9 -2 -12 -12z"/>
<path d="M6171 3264 c0 -11 3 -14 6 -6 3 7 2 16 -1 19 -3 4 -6 -2 -5 -13z"/>
<path d="M160 3220 c0 -11 7 -20 15 -20 8 0 15 9 15 20 0 11 -7 20 -15 20 -8
0 -15 -9 -15 -20z"/>
<path d="M320 3168 c0 -16 5 -28 10 -28 13 0 13 20 0 40 -8 12 -10 9 -10 -12z"/>
<path d="M7876 3175 c-3 -8 -1 -15 4 -15 6 0 10 7 10 15 0 8 -2 15 -4 15 -2 0
-6 -7 -10 -15z"/>
<path d="M7816 3151 c-21 -24 -9 -33 30 -21 24 7 25 8 7 9 -25 1 -31 16 -10
24 7 3 7 6 1 6 -6 1 -19 -8 -28 -18z"/>
<path d="M5969 3133 c-13 -16 -12 -17 4 -4 16 13 21 21 13 21 -2 0 -10 -8 -17
-17z"/>
<path d="M354 3104 c3 -9 6 -26 6 -39 0 -14 7 -25 20 -28 15 -4 20 -14 20 -41
0 -20 5 -36 10 -36 6 0 10 -18 10 -40 0 -29 4 -40 15 -40 8 0 15 9 15 21 0 11
-4 17 -10 14 -5 -3 -7 0 -5 8 3 7 -1 27 -10 43 -8 16 -15 39 -15 50 0 12 -6
24 -14 27 -7 3 -16 22 -20 41 -4 20 -12 36 -18 36 -5 0 -7 -7 -4 -16z"/>
<path d="M3692 3100 c0 -14 2 -19 5 -12 2 6 2 18 0 25 -3 6 -5 1 -5 -13z"/>
<path d="M3722 3100 c0 -14 2 -19 5 -12 2 6 2 18 0 25 -3 6 -5 1 -5 -13z"/>
<path d="M10153 3080 c0 -25 2 -35 4 -22 2 12 2 32 0 45 -2 12 -4 2 -4 -23z"/>
<path d="M5885 3090 c-10 -11 -14 -20 -9 -20 5 0 15 9 22 20 7 11 11 20 9 20
-2 0 -12 -9 -22 -20z"/>
<path d="M4921 3044 c0 -11 3 -14 6 -6 3 7 2 16 -1 19 -3 4 -6 -2 -5 -13z"/>
<path d="M7716 3051 c-3 -5 5 -8 18 -7 13 0 22 4 19 9 -6 10 -31 9 -37 -2z"/>
<path d="M3631 3004 c0 -11 3 -14 6 -6 3 7 2 16 -1 19 -3 4 -6 -2 -5 -13z"/>
<path d="M7650 2989 c0 -5 5 -7 10 -4 6 3 10 8 10 11 0 2 -4 4 -10 4 -5 0 -10
-5 -10 -11z"/>
<path d="M2825 2970 c-3 -6 1 -7 9 -4 18 7 21 14 7 14 -6 0 -13 -4 -16 -10z"/>
<path d="M320 2920 c0 -22 5 -40 10 -40 6 0 10 18 10 40 0 22 -4 40 -10 40 -5
0 -10 -18 -10 -40z"/>
<path d="M5255 2940 c3 -5 8 -10 11 -10 2 0 4 5 4 10 0 6 -5 10 -11 10 -5 0
-7 -4 -4 -10z"/>
<path d="M3661 2924 c0 -11 3 -14 6 -6 3 7 2 16 -1 19 -3 4 -6 -2 -5 -13z"/>
<path d="M5210 2936 c0 -3 9 -10 20 -16 11 -6 20 -8 20 -6 0 3 -9 10 -20 16
-11 6 -20 8 -20 6z"/>
<path d="M4610 2926 c0 -9 30 -14 35 -6 4 6 -3 10 -14 10 -12 0 -21 -2 -21 -4z"/>
<path d="M5065 2921 c-65 -11 -65 -11 -65 -135 0 -122 9 -155 50 -179 33 -20
100 -38 100 -27 0 5 14 11 31 15 49 11 67 52 68 157 1 50 4 94 7 99 3 5 0 9
-5 9 -6 0 -11 6 -11 13 0 38 -86 61 -175 48z"/>
<path d="M5578 2923 c7 -3 16 -2 19 1 4 3 -2 6 -13 5 -11 0 -14 -3 -6 -6z"/>
<path d="M5618 2923 c6 -2 18 -2 25 0 6 3 1 5 -13 5 -14 0 -19 -2 -12 -5z"/>
<path d="M4688 2913 c7 -3 16 -2 19 1 4 3 -2 6 -13 5 -11 0 -14 -3 -6 -6z"/>
<path d="M4778 2903 c7 -3 16 -2 19 1 4 3 -2 6 -13 5 -11 0 -14 -3 -6 -6z"/>
<path d="M5448 2903 c7 -3 16 -2 19 1 4 3 -2 6 -13 5 -11 0 -14 -3 -6 -6z"/>
<path d="M2887 2893 c-3 -5 6 -9 20 -10 19 -1 22 1 12 8 -17 11 -26 11 -32 2z"/>
<path d="M7430 2890 c0 -6 7 -10 15 -10 8 0 15 2 15 4 0 2 -7 6 -15 10 -8 3
-15 1 -15 -4z"/>
<path d="M472 2848 c-1 -20 3 -40 8 -43 6 -3 10 -15 10 -26 0 -10 5 -19 10
-19 14 0 12 12 -4 36 -8 11 -16 36 -19 55 l-4 34 -1 -37z"/>
<path d="M6121 2854 c0 -11 3 -14 6 -6 3 7 2 16 -1 19 -3 4 -6 -2 -5 -13z"/>
<path d="M3771 2834 c0 -11 3 -14 6 -6 3 7 2 16 -1 19 -3 4 -6 -2 -5 -13z"/>
<path d="M6091 2834 c0 -11 3 -14 6 -6 3 7 2 16 -1 19 -3 4 -6 -2 -5 -13z"/>
<path d="M4112 2810 c0 -14 2 -19 5 -12 2 6 2 18 0 25 -3 6 -5 1 -5 -13z"/>
<path d="M3018 2813 c7 -3 16 -2 19 1 4 3 -2 6 -13 5 -11 0 -14 -3 -6 -6z"/>
<path d="M3711 2774 c0 -11 3 -14 6 -6 3 7 2 16 -1 19 -3 4 -6 -2 -5 -13z"/>
<path d="M7180 2750 c-8 -5 -10 -10 -5 -10 6 0 17 5 25 10 8 5 11 10 5 10 -5
0 -17 -5 -25 -10z"/>
<path d="M516 2734 c-8 -22 1 -31 16 -16 9 9 9 15 1 23 -7 7 -12 5 -17 -7z"/>
<path d="M5670 2710 c0 -5 5 -10 11 -10 5 0 7 5 4 10 -3 6 -8 10 -11 10 -2 0
-4 -4 -4 -10z"/>
<path d="M5626 2671 c-4 -7 -5 -15 -2 -18 9 -9 19 4 14 18 -4 11 -6 11 -12 0z"/>
<path d="M7035 2670 c-3 -5 -1 -10 4 -10 6 0 11 5 11 10 0 6 -2 10 -4 10 -3 0
-8 -4 -11 -10z"/>
<path d="M480 2636 c0 -9 5 -16 10 -16 6 0 10 -13 10 -30 0 -23 4 -30 20 -30
29 0 25 25 -10 62 -22 22 -30 26 -30 14z"/>
<path d="M580 2615 c0 -8 4 -15 10 -15 5 0 7 7 4 15 -4 8 -8 15 -10 15 -2 0
-4 -7 -4 -15z"/>
<path d="M4621 2623 c-1 -6 -4 -20 -7 -30 -5 -17 -5 -17 6 0 6 10 9 23 6 30
-3 9 -5 9 -5 0z"/>
<path d="M4990 2626 c0 -4 7 -14 15 -22 8 -9 15 -11 15 -6 0 5 -7 15 -15 22
-8 7 -15 9 -15 6z"/>
<path d="M600 2576 c0 -9 5 -16 10 -16 6 0 10 4 10 9 0 6 -4 13 -10 16 -5 3
-10 -1 -10 -9z"/>
<path d="M6915 2570 c-3 -6 1 -7 9 -4 18 7 21 14 7 14 -6 0 -13 -4 -16 -10z"/>
<path d="M3931 2544 c0 -11 3 -14 6 -6 3 7 2 16 -1 19 -3 4 -6 -2 -5 -13z"/>
<path d="M5546 2514 c-4 -9 -4 -19 -1 -22 2 -3 7 3 11 12 4 9 4 19 1 22 -2 3
-7 -3 -11 -12z"/>
<path d="M5895 2520 c3 -5 8 -10 11 -10 2 0 4 5 4 10 0 6 -5 10 -11 10 -5 0
-7 -4 -4 -10z"/>
<path d="M6780 2520 c-8 -5 -12 -12 -9 -15 4 -3 12 1 19 10 14 17 11 19 -10 5z"/>
<path d="M6717 2505 c-4 -8 -3 -16 1 -19 4 -3 9 4 9 15 2 23 -3 25 -10 4z"/>
<path d="M4290 2501 c0 -6 4 -11 9 -11 5 0 7 -9 4 -20 -3 -11 -3 -20 0 -20 12
0 13 41 1 51 -10 8 -14 8 -14 0z"/>
<path d="M5917 2503 c-11 -11 -8 -21 9 -27 13 -5 14 -4 6 7 -7 8 -9 17 -5 20
3 4 4 7 1 7 -2 0 -8 -3 -11 -7z"/>
<path d="M9833 2440 c0 -25 2 -35 4 -22 2 12 2 32 0 45 -2 12 -4 2 -4 -23z"/>
<path d="M6608 2453 c6 -2 18 -2 25 0 6 3 1 5 -13 5 -14 0 -19 -2 -12 -5z"/>
<path d="M5533 2405 c0 -22 2 -30 4 -17 2 12 2 30 0 40 -3 9 -5 -1 -4 -23z"/>
<path d="M3700 2416 c0 -2 7 -7 16 -10 8 -3 12 -2 9 4 -6 10 -25 14 -25 6z"/>
<path d="M6550 2410 c0 -5 5 -10 11 -10 5 0 7 5 4 10 -3 6 -8 10 -11 10 -2 0
-4 -4 -4 -10z"/>
<path d="M3896 2387 c3 -10 9 -15 12 -12 3 3 0 11 -7 18 -10 9 -11 8 -5 -6z"/>
<path d="M5040 2381 c0 -10 19 -25 25 -20 1 2 -3 10 -11 17 -8 7 -14 8 -14 3z"/>
<path d="M4416 2365 c-9 -26 -7 -32 5 -12 6 10 9 21 6 23 -2 3 -7 -2 -11 -11z"/>
<path d="M740 2335 c0 -8 4 -15 10 -15 5 0 7 7 4 15 -4 8 -8 15 -10 15 -2 0
-4 -7 -4 -15z"/>
<path d="M6121 2304 c0 -11 3 -14 6 -6 3 7 2 16 -1 19 -3 4 -6 -2 -5 -13z"/>
<path d="M4111 2294 c0 -11 3 -14 6 -6 3 7 2 16 -1 19 -3 4 -6 -2 -5 -13z"/>
<path d="M5850 2295 c0 -5 5 -17 10 -25 5 -8 10 -10 10 -5 0 6 -5 17 -10 25
-5 8 -10 11 -10 5z"/>
<path d="M5712 2220 c0 -14 2 -19 5 -12 2 6 2 18 0 25 -3 6 -5 1 -5 -13z"/>
<path d="M10073 2200 c0 -25 2 -35 4 -22 2 12 2 32 0 45 -2 12 -4 2 -4 -23z"/>
<path d="M4512 2210 c7 -10 14 -18 15 -16 6 6 -9 36 -18 36 -5 0 -4 -9 3 -20z"/>
<path d="M4190 2201 c0 -5 5 -13 10 -16 6 -3 10 -2 10 4 0 5 -4 13 -10 16 -5
3 -10 2 -10 -4z"/>
<path d="M830 2170 c0 -5 5 -10 11 -10 5 0 7 5 4 10 -3 6 -8 10 -11 10 -2 0
-4 -4 -4 -10z"/>
<path d="M5840 2120 c0 -5 5 -10 11 -10 5 0 7 5 4 10 -3 6 -8 10 -11 10 -2 0
-4 -4 -4 -10z"/>
<path d="M5402 2060 c0 -14 2 -19 5 -12 2 6 2 18 0 25 -3 6 -5 1 -5 -13z"/>
<path d="M5372 2050 c0 -14 2 -19 5 -12 2 6 2 18 0 25 -3 6 -5 1 -5 -13z"/>
<path d="M5030 2020 c8 -5 24 -10 34 -10 26 0 18 6 -19 14 -22 5 -26 4 -15 -4z"/>
<path d="M5570 2016 c0 -2 7 -7 16 -10 8 -3 12 -2 9 4 -6 10 -25 14 -25 6z"/>
<path d="M1360 1530 c0 -5 5 -10 10 -10 6 0 10 5 10 10 0 6 -4 10 -10 10 -5 0
-10 -4 -10 -10z"/>
<path d="M9113 1400 c0 -25 2 -35 4 -22 2 12 2 32 0 45 -2 12 -4 2 -4 -23z"/>
<path d="M8960 1270 c0 -5 18 -10 40 -10 22 0 40 5 40 10 0 6 -18 10 -40 10
-22 0 -40 -4 -40 -10z"/>
<path d="M1760 1190 c0 -5 7 -10 15 -10 8 0 15 5 15 10 0 6 -7 10 -15 10 -8 0
-15 -4 -15 -10z"/>
<path d="M10083 1000 c0 -25 2 -35 4 -22 2 12 2 32 0 45 -2 12 -4 2 -4 -23z"/>
<path d="M9523 920 c0 -25 2 -35 4 -22 2 12 2 32 0 45 -2 12 -4 2 -4 -23z"/>
<path d="M2105 890 c-3 -5 3 -10 14 -10 12 0 21 5 21 10 0 6 -6 10 -14 10 -8
0 -18 -4 -21 -10z"/>
<path d="M9760 810 c0 -5 18 -10 40 -10 22 0 40 5 40 10 0 6 -18 10 -40 10
-22 0 -40 -4 -40 -10z"/>
<path d="M8483 760 c0 -25 2 -35 4 -22 2 12 2 32 0 45 -2 12 -4 2 -4 -23z"/>
<path d="M2480 670 c0 -5 5 -10 10 -10 6 0 10 5 10 10 0 6 -4 10 -10 10 -5 0
-10 -4 -10 -10z"/>
<path d="M2717 554 c6 -15 23 -19 23 -5 0 5 -7 11 -14 14 -10 4 -13 1 -9 -9z"/>
<path d="M7585 530 c3 -5 8 -10 11 -10 2 0 4 5 4 10 0 6 -5 10 -11 10 -5 0 -7
-4 -4 -10z"/>
<path d="M2780 490 c0 -5 7 -10 16 -10 8 0 12 5 9 10 -3 6 -10 10 -16 10 -5 0
-9 -4 -9 -10z"/>
<path d="M9763 360 c0 -25 2 -35 4 -22 2 12 2 32 0 45 -2 12 -4 2 -4 -23z"/>
<path d="M7353 200 c0 -25 2 -35 4 -22 2 12 2 32 0 45 -2 12 -4 2 -4 -23z"/>
<path d="M9763 200 c0 -25 2 -35 4 -22 2 12 2 32 0 45 -2 12 -4 2 -4 -23z"/>
<path d="M3043 120 c0 -25 2 -35 4 -22 2 12 2 32 0 45 -2 12 -4 2 -4 -23z"/>
<path d="M7246 24 c-21 -21 -20 -24 9 -24 18 0 25 5 25 20 0 24 -13 26 -34 4z"/>
</g>
</svg>
