<?xml version="1.0" standalone="no"?>
<!DOCTYPE svg PUBLIC "-//W3C//DTD SVG 20010904//EN"
 "http://www.w3.org/TR/2001/REC-SVG-20010904/DTD/svg10.dtd">
<svg version="1.0" xmlns="http://www.w3.org/2000/svg"
 width="1024.000000pt" height="1024.000000pt" viewBox="0 0 1024.000000 1024.000000"
 preserveAspectRatio="xMidYMid meet">

<g transform="translate(0.000000,1024.000000) scale(0.100000,-0.100000)"
fill="#000000" stroke="none">
<path d="M4588 8143 c7 -3 16 -2 19 1 4 3 -2 6 -13 5 -11 0 -14 -3 -6 -6z"/>
<path d="M4728 8143 c7 -3 16 -2 19 1 4 3 -2 6 -13 5 -11 0 -14 -3 -6 -6z"/>
<path d="M4835 8140 c11 -5 27 -9 35 -9 9 0 8 4 -5 9 -11 5 -27 9 -35 9 -9 0
-8 -4 5 -9z"/>
<path d="M4528 8133 c6 -2 18 -2 25 0 6 3 1 5 -13 5 -14 0 -19 -2 -12 -5z"/>
<path d="M4638 8133 c7 -3 16 -2 19 1 4 3 -2 6 -13 5 -11 0 -14 -3 -6 -6z"/>
<path d="M4611 8113 c-35 -7 -100 -28 -143 -47 -72 -31 -118 -37 -118 -15 0 5
-4 9 -10 9 -20 0 -9 -19 16 -27 l27 -9 -29 -19 c-16 -10 -33 -18 -39 -17 -5 1
-25 3 -43 5 -31 4 -31 3 -16 -15 21 -22 28 -23 20 -3 -6 16 9 21 18 6 5 -8
-186 -161 -202 -161 -4 0 0 5 8 11 13 9 13 10 0 6 -8 -2 -15 -8 -15 -14 0 -13
-14 -26 -135 -123 -58 -46 -116 -94 -130 -107 -14 -13 -30 -21 -37 -19 -7 3
-10 0 -8 -7 2 -7 -12 -25 -32 -42 -34 -28 -36 -28 -49 -10 -8 10 -14 14 -14 8
0 -7 4 -15 10 -18 5 -3 -5 -21 -24 -41 -33 -34 -54 -45 -40 -21 4 7 3 9 -2 4
-5 -5 -9 -14 -9 -20 -1 -7 -7 -11 -15 -9 -8 2 -12 0 -7 -4 4 -4 -5 -20 -20
-36 -27 -28 -51 -39 -37 -16 4 7 3 8 -5 4 -6 -4 -9 -11 -6 -15 7 -12 -136
-151 -148 -144 -6 3 -7 1 -3 -6 4 -6 -1 -23 -11 -39 -48 -70 -76 -186 -66
-274 4 -32 20 -79 41 -118 113 -209 142 -267 142 -281 0 -8 8 -33 19 -55 25
-53 37 -169 19 -191 -9 -12 -9 -15 -1 -9 9 5 11 2 6 -10 -5 -14 -13 -9 -45 27
-89 100 -117 137 -110 144 4 5 2 5 -4 2 -7 -4 -19 4 -28 18 -45 69 -65 -26
-36 -177 7 -37 16 -66 20 -63 5 3 11 -4 15 -15 3 -11 31 -40 60 -64 30 -24 51
-47 47 -51 -4 -5 -1 -5 5 -1 7 4 36 0 64 -8 48 -15 55 -14 112 5 40 13 71 32
92 55 17 19 35 32 38 29 4 -3 5 -2 2 1 -8 12 16 45 27 38 6 -4 8 -3 4 4 -3 5
5 46 18 89 48 153 55 179 66 263 17 121 18 156 7 240 -5 41 -10 85 -11 97 -2
13 -9 31 -18 40 -27 32 -30 44 -16 61 11 15 11 15 -3 5 -13 -10 -24 -4 -72 41
-53 50 -85 70 -151 96 -43 16 -19 33 54 38 71 5 124 -12 203 -66 28 -19 54
-38 57 -41 3 -4 18 -14 33 -24 15 -10 25 -22 22 -27 -3 -5 0 -12 6 -16 8 -4 9
-3 5 4 -10 17 -2 15 38 -9 20 -12 34 -24 32 -27 -2 -4 39 -9 91 -10 61 -3 93
0 89 6 -3 5 5 13 18 16 42 10 112 97 131 162 10 32 20 66 22 74 15 45 12 128
-8 217 -11 54 -21 106 -22 116 -1 9 -4 17 -7 17 -10 0 -43 70 -37 77 12 11 54
-36 87 -98 17 -32 28 -59 24 -59 -3 0 -1 -6 5 -14 18 -22 52 -136 45 -149 -4
-7 -3 -9 1 -4 5 4 32 -71 60 -166 54 -183 84 -248 137 -292 18 -16 32 -34 30
-41 -1 -7 3 -16 9 -20 8 -4 9 -3 5 4 -4 7 -3 12 2 12 12 0 68 -63 64 -72 -1
-5 1 -7 6 -7 25 4 33 -3 28 -23 -3 -13 -3 -17 0 -9 5 10 15 4 36 -20 28 -32
29 -38 24 -95 -4 -34 -14 -99 -24 -145 -21 -100 -20 -148 5 -194 21 -40 25
-132 8 -190 -9 -31 -20 -53 -25 -50 -5 3 -7 0 -4 -8 3 -8 -3 -21 -14 -28 -11
-8 -19 -18 -18 -24 0 -5 -9 -11 -21 -13 -13 -2 -23 -7 -23 -12 0 -4 -10 -6
-22 -3 -19 4 -21 3 -8 -7 13 -10 13 -11 -1 -7 -17 5 -104 -13 -152 -32 -16 -6
-33 -8 -39 -5 -7 5 -8 2 -3 -6 6 -10 1 -11 -21 -6 -16 4 -24 3 -17 -2 9 -5 3
-13 -20 -27 -17 -10 -47 -31 -66 -46 -18 -15 -40 -25 -47 -22 -10 3 -12 0 -8
-10 3 -9 -7 -28 -25 -48 -17 -17 -31 -37 -31 -44 0 -10 60 -69 78 -77 4 -2 6
-7 4 -11 -1 -5 2 -6 8 -2 6 4 42 -14 81 -40 38 -25 76 -48 84 -52 8 -3 12 -10
8 -16 -3 -5 -1 -7 5 -3 6 3 27 -3 47 -15 28 -17 33 -24 23 -31 -9 -6 -6 -7 8
-3 21 5 74 -12 74 -25 0 -3 16 -12 36 -19 28 -10 33 -15 23 -23 -11 -7 -9 -8
5 -4 11 4 48 -8 93 -29 40 -19 78 -35 84 -35 6 0 7 -5 3 -12 -4 -6 -3 -8 3 -5
15 9 74 -13 67 -25 -3 -5 0 -8 8 -6 11 3 111 -33 250 -90 21 -8 35 -19 32 -23
-3 -5 1 -9 8 -9 9 0 9 -3 -2 -10 -8 -5 -10 -10 -5 -10 6 0 17 5 25 10 10 6 11
10 3 10 -7 0 -13 4 -13 9 0 5 20 1 44 -7 25 -9 42 -21 39 -26 -3 -5 -1 -6 6
-2 6 4 51 -4 99 -19 48 -14 125 -37 172 -52 169 -51 442 -108 593 -125 100
-10 107 -13 85 -25 -16 -10 -17 -12 -3 -7 11 4 42 9 68 10 27 1 51 5 54 8 3 3
-1 20 -10 38 -21 45 -31 81 -28 93 1 6 0 7 -4 3 -8 -8 -61 52 -58 64 2 4 -3 7
-10 5 -6 -1 -11 4 -10 10 2 7 0 12 -5 11 -15 -5 -54 30 -46 43 5 9 2 10 -9 6
-11 -4 -17 -1 -17 8 0 8 -9 23 -21 34 -19 18 -19 48 1 36 4 -3 5 5 2 17 -5 19
-7 20 -10 6 -2 -10 -7 -18 -12 -18 -13 0 -33 98 -26 133 3 18 7 40 9 49 6 45
77 127 114 132 9 2 19 9 22 17 3 8 20 34 36 58 26 38 30 55 32 117 2 62 -1 76
-23 105 -13 18 -31 37 -39 41 -8 5 -12 16 -9 26 4 12 3 13 -3 5 -11 -16 -113
-6 -113 11 0 6 -4 4 -10 -4 -15 -23 -24 -3 -12 26 9 19 9 24 1 18 -9 -5 -10 0
-4 17 14 44 18 576 6 704 -30 303 -67 511 -102 576 -5 11 -7 24 -4 29 3 6 1
10 -5 10 -6 0 -8 5 -5 10 3 6 3 10 -2 10 -4 0 -16 14 -26 32 -14 25 -15 33 -5
41 9 6 8 7 -5 3 -13 -4 -21 2 -31 24 -7 17 -15 27 -19 23 -4 -3 -7 1 -7 10 0
9 -4 16 -8 14 -4 -1 -26 16 -49 39 -22 22 -53 48 -68 58 -23 15 -25 20 -13 34
11 15 11 15 -3 5 -13 -11 -29 -5 -98 36 -45 27 -78 51 -74 53 5 3 2 3 -4 2 -7
-2 -34 7 -60 21 -27 13 -76 34 -110 46 -34 13 -59 28 -56 33 3 5 1 6 -5 2 -6
-4 -51 6 -99 22 -49 16 -118 37 -155 48 -36 10 -64 22 -62 26 3 4 -2 8 -11 8
-9 0 -13 4 -10 10 3 5 0 7 -8 4 -12 -4 -42 20 -42 35 0 3 -3 5 -7 4 -11 -4
-78 59 -72 68 2 4 -1 11 -7 15 -8 4 -9 3 -5 -4 14 -23 -6 -12 -57 32 -29 24
-65 50 -82 59 -76 38 -181 50 -274 30z"/>
<path d="M4850 8116 c0 -2 7 -7 16 -10 8 -3 12 -2 9 4 -6 10 -25 14 -25 6z"/>
<path d="M4376 8071 c-15 -6 -16 -9 -5 -13 8 -3 20 1 27 8 14 15 7 17 -22 5z"/>
<path d="M4430 8070 c-9 -6 -10 -10 -3 -10 6 0 15 5 18 10 8 12 4 12 -15 0z"/>
<path d="M4975 8070 c-3 -5 -1 -10 4 -10 6 0 11 5 11 10 0 6 -2 10 -4 10 -3 0
-8 -4 -11 -10z"/>
<path d="M5090 7986 c0 -2 7 -9 15 -16 9 -7 15 -8 15 -2 0 5 -7 12 -15 16 -8
3 -15 4 -15 2z"/>
<path d="M5086 7945 c10 -8 23 -15 28 -15 6 0 1 7 -10 15 -10 8 -23 15 -28 15
-6 0 -1 -7 10 -15z"/>
<path d="M5150 7910 c8 -5 20 -10 25 -10 6 0 3 5 -5 10 -8 5 -19 10 -25 10 -5
0 -3 -5 5 -10z"/>
<path d="M4118 7903 c7 -3 16 -2 19 1 4 3 -2 6 -13 5 -11 0 -14 -3 -6 -6z"/>
<path d="M5301 7836 c2 -2 18 -6 34 -10 22 -5 26 -4 15 4 -14 9 -59 15 -49 6z"/>
<path d="M4009 7813 c-13 -17 -13 -17 6 -3 11 8 22 16 24 17 2 2 0 3 -6 3 -6
0 -17 -8 -24 -17z"/>
<path d="M5388 7823 c7 -3 16 -2 19 1 4 3 -2 6 -13 5 -11 0 -14 -3 -6 -6z"/>
<path d="M5790 7670 c-8 -5 -10 -10 -5 -10 6 0 17 5 25 10 8 5 11 10 5 10 -5
0 -17 -5 -25 -10z"/>
<path d="M5885 7580 c-3 -6 1 -7 9 -4 18 7 21 14 7 14 -6 0 -13 -4 -16 -10z"/>
<path d="M3710 7535 c0 -8 2 -15 4 -15 2 0 6 7 10 15 3 8 1 15 -4 15 -6 0 -10
-7 -10 -15z"/>
<path d="M3565 7430 c-16 -7 -17 -9 -3 -9 9 -1 20 4 23 9 7 11 7 11 -20 0z"/>
<path d="M4440 7401 c0 -6 4 -13 10 -16 6 -3 7 1 4 9 -7 18 -14 21 -14 7z"/>
<path d="M6136 7323 c-6 -14 -5 -15 5 -6 7 7 10 15 7 18 -3 3 -9 -2 -12 -12z"/>
<path d="M4442 7280 c0 -19 2 -27 5 -17 2 9 2 25 0 35 -3 9 -5 1 -5 -18z"/>
<path d="M6187 7182 c1 -8 3 -18 3 -23 0 -6 5 -7 10 -4 6 3 10 16 10 28 0 16
-3 18 -9 8 -5 -7 -11 -9 -13 -5 -3 5 -3 3 -1 -4z"/>
<path d="M3292 7140 c0 -14 2 -19 5 -12 2 6 2 18 0 25 -3 6 -5 1 -5 -13z"/>
<path d="M4345 7000 c-3 -5 -1 -10 4 -10 6 0 11 5 11 10 0 6 -2 10 -4 10 -3 0
-8 -4 -11 -10z"/>
<path d="M4000 6946 c0 -2 7 -7 16 -10 8 -3 12 -2 9 4 -6 10 -25 14 -25 6z"/>
<path d="M4028 6903 c7 -3 16 -2 19 1 4 3 -2 6 -13 5 -11 0 -14 -3 -6 -6z"/>
<path d="M4208 6903 c6 -2 18 -2 25 0 6 3 1 5 -13 5 -14 0 -19 -2 -12 -5z"/>
<path d="M6281 6694 c0 -11 3 -14 6 -6 3 7 2 16 -1 19 -3 4 -6 -2 -5 -13z"/>
<path d="M3366 6655 c-6 -17 5 -26 21 -17 8 5 7 11 -2 19 -10 10 -14 9 -19 -2z"/>
<path d="M3397 6605 c8 -22 33 -51 33 -38 0 4 -9 19 -20 33 -16 20 -19 21 -13
5z"/>
<path d="M3896 6535 c8 -37 14 -45 14 -19 0 10 -5 26 -10 34 -8 11 -9 7 -4
-15z"/>
<path d="M3471 6414 c0 -11 3 -14 6 -6 3 7 2 16 -1 19 -3 4 -6 -2 -5 -13z"/>
<path d="M3407 6376 c-4 -10 -1 -13 9 -9 7 3 14 9 14 14 0 14 -17 10 -23 -5z"/>
<path d="M4842 6370 c0 -14 2 -19 5 -12 2 6 2 18 0 25 -3 6 -5 1 -5 -13z"/>
<path d="M3420 6345 c0 -5 5 -17 10 -25 5 -8 10 -10 10 -5 0 6 -5 17 -10 25
-5 8 -10 11 -10 5z"/>
<path d="M6311 6334 c0 -11 3 -14 6 -6 3 7 2 16 -1 19 -3 4 -6 -2 -5 -13z"/>
<path d="M3475 6299 c-4 -11 -4 -23 -1 -26 3 -4 6 1 6 10 0 8 5 17 12 19 9 3
9 6 1 11 -7 4 -14 -1 -18 -14z"/>
<path d="M3490 6259 c0 -5 5 -7 10 -4 6 3 10 8 10 11 0 2 -4 4 -10 4 -5 0 -10
-5 -10 -11z"/>
<path d="M3821 6244 c0 -11 3 -14 6 -6 3 7 2 16 -1 19 -3 4 -6 -2 -5 -13z"/>
<path d="M3321 6134 c0 -11 3 -14 6 -6 3 7 2 16 -1 19 -3 4 -6 -2 -5 -13z"/>
<path d="M3615 6020 c-13 -6 -15 -9 -5 -9 8 0 22 4 30 9 18 12 2 12 -25 0z"/>
<path d="M6291 6014 c0 -11 3 -14 6 -6 3 7 2 16 -1 19 -3 4 -6 -2 -5 -13z"/>
<path d="M4810 5949 c-6 -11 -10 -25 -8 -30 2 -5 8 4 15 21 13 34 9 40 -7 9z"/>
<path d="M6360 5900 c8 -5 20 -10 25 -10 6 0 3 5 -5 10 -8 5 -19 10 -25 10 -5
0 -3 -5 5 -10z"/>
<path d="M4688 5883 c7 -3 16 -2 19 1 4 3 -2 6 -13 5 -11 0 -14 -3 -6 -6z"/>
<path d="M6308 5883 c6 -2 18 -2 25 0 6 3 1 5 -13 5 -14 0 -19 -2 -12 -5z"/>
<path d="M4618 5873 c6 -2 18 -2 25 0 6 3 1 5 -13 5 -14 0 -19 -2 -12 -5z"/>
<path d="M4423 5765 c-7 -7 -18 -15 -25 -18 -7 -2 -11 -7 -8 -10 3 -3 16 3 30
13 14 10 23 21 20 23 -3 3 -10 -1 -17 -8z"/>
<path d="M4320 5679 c0 -5 5 -7 10 -4 6 3 10 8 10 11 0 2 -4 4 -10 4 -5 0 -10
-5 -10 -11z"/>
<path d="M6465 5608 c-4 -13 -14 -31 -23 -40 -8 -10 -10 -18 -5 -18 12 0 47
69 40 77 -3 2 -8 -6 -12 -19z"/>
<path d="M6459 5547 c-15 -21 -15 -23 0 -23 10 0 17 9 17 23 2 28 3 28 -17 0z"/>
<path d="M4208 5466 c-19 -10 -28 -11 -31 -3 -2 6 -6 3 -10 -7 -4 -10 -3 -15
3 -11 18 11 11 -13 -8 -27 -15 -11 -60 -66 -133 -161 -17 -21 -17 -21 -14 7 2
15 1 25 -3 21 -4 -3 -7 -20 -7 -36 0 -17 -7 -34 -15 -39 -8 -6 -11 -10 -6 -10
5 0 3 -7 -4 -15 -7 -8 -17 -12 -22 -8 -6 3 -9 0 -6 -8 3 -8 -13 -42 -34 -77
-21 -34 -38 -67 -38 -73 0 -5 -5 -7 -12 -3 -6 4 -8 3 -5 -3 4 -6 -5 -34 -19
-63 -20 -41 -28 -50 -36 -39 -7 10 -8 9 -3 -7 7 -27 -23 -106 -38 -97 -6 4 -7
1 -3 -6 5 -7 -3 -38 -17 -69 -14 -31 -27 -70 -29 -86 l-3 -29 145 -49 c80 -26
159 -52 175 -58 17 -6 41 -13 55 -16 14 -3 70 -19 125 -35 101 -31 224 -66
304 -88 33 -10 41 -15 30 -22 -9 -5 -10 -9 -2 -9 6 0 15 5 18 10 4 6 12 7 18
3 7 -4 20 -6 31 -4 12 2 16 -1 10 -10 -5 -9 -2 -10 11 -6 9 4 52 -2 94 -12 42
-11 110 -27 151 -35 41 -8 140 -28 220 -45 80 -16 184 -35 233 -42 48 -7 87
-16 87 -20 0 -3 12 -6 28 -6 34 0 146 -12 232 -24 36 -5 89 -11 118 -14 28 -2
80 -7 115 -10 243 -22 579 -27 690 -10 31 4 38 3 27 -4 -9 -7 -10 -11 -3 -11
6 0 14 4 17 9 3 5 33 12 67 16 l61 7 -7 32 c-4 17 -7 54 -8 81 0 32 -2 43 -7
30 -7 -19 -7 -19 -15 4 -5 16 -3 27 6 33 11 8 11 9 -2 5 -12 -4 -20 8 -33 51
-10 32 -28 84 -41 117 -13 33 -35 92 -49 132 -29 75 -37 83 -92 83 -19 0 -34
4 -34 10 0 5 -6 7 -13 4 -8 -3 -43 0 -78 6 -82 14 -117 20 -154 25 -75 10
-321 59 -325 65 -3 3 -14 6 -25 7 -18 0 -140 28 -238 54 -21 5 -35 14 -32 18
3 5 -2 11 -9 14 -8 3 -16 2 -18 -4 -5 -14 -308 77 -308 93 0 5 -4 7 -9 3 -15
-9 -172 46 -164 58 4 6 0 8 -10 4 -13 -5 -102 22 -132 41 -5 4 -15 7 -21 8 -6
1 -27 8 -45 17 -19 8 -53 22 -76 32 -23 10 -40 21 -38 25 3 5 -5 6 -17 2 -14
-3 -19 -1 -14 6 4 8 2 10 -7 6 -8 -3 -21 2 -30 10 -8 8 -17 13 -20 10 -3 -3
-15 0 -27 6 -18 10 -20 14 -9 22 10 7 8 8 -7 3 -27 -7 -56 4 -47 18 3 5 1 7
-5 3 -14 -9 -63 14 -55 27 3 6 1 7 -5 3 -6 -4 -21 -2 -33 5 -18 9 -19 13 -8
21 10 6 7 7 -9 3 -17 -5 -39 3 -80 27 -31 19 -87 52 -124 73 -37 21 -65 42
-62 47 7 11 3 10 -28 -6z"/>
<path d="M6375 5461 c-3 -5 -1 -12 5 -16 5 -3 10 1 10 9 0 18 -6 21 -15 7z"/>
<path d="M6285 5359 c-4 -6 -5 -12 -2 -15 2 -3 7 2 10 11 7 17 1 20 -8 4z"/>
<path d="M6302 5315 c0 -16 2 -22 5 -12 2 9 2 23 0 30 -3 6 -5 -1 -5 -18z"/>
<path d="M4740 5326 c0 -2 7 -7 16 -10 8 -3 12 -2 9 4 -6 10 -25 14 -25 6z"/>
<path d="M4698 5233 c7 -3 16 -2 19 1 4 3 -2 6 -13 5 -11 0 -14 -3 -6 -6z"/>
<path d="M6311 5214 c0 -11 3 -14 6 -6 3 7 2 16 -1 19 -3 4 -6 -2 -5 -13z"/>
<path d="M5088 5163 c7 -3 16 -2 19 1 4 3 -2 6 -13 5 -11 0 -14 -3 -6 -6z"/>
<path d="M5058 5143 c7 -3 16 -2 19 1 4 3 -2 6 -13 5 -11 0 -14 -3 -6 -6z"/>
<path d="M5030 5100 c-9 -6 -10 -10 -3 -10 6 0 15 5 18 10 8 12 4 12 -15 0z"/>
<path d="M5085 5100 c-3 -6 1 -7 9 -4 18 7 21 14 7 14 -6 0 -13 -4 -16 -10z"/>
<path d="M6382 5084 c-7 -8 -8 -14 -3 -14 10 0 25 19 20 25 -2 1 -10 -3 -17
-11z"/>
<path d="M6454 5009 c-4 -7 -3 -9 4 -5 5 3 13 0 15 -6 4 -9 6 -10 6 -1 1 17
-16 25 -25 12z"/>
<path d="M5548 5003 c7 -3 16 -2 19 1 4 3 -2 6 -13 5 -11 0 -14 -3 -6 -6z"/>
<path d="M5558 4973 c7 -3 16 -2 19 1 4 3 -2 6 -13 5 -11 0 -14 -3 -6 -6z"/>
<path d="M3815 4940 c-3 -5 -1 -10 4 -10 6 0 11 5 11 10 0 6 -2 10 -4 10 -3 0
-8 -4 -11 -10z"/>
<path d="M6532 4930 c0 -14 2 -19 5 -12 2 6 2 18 0 25 -3 6 -5 1 -5 -13z"/>
<path d="M2058 4933 c6 -2 18 -2 25 0 6 3 1 5 -13 5 -14 0 -19 -2 -12 -5z"/>
<path d="M2118 4923 c7 -3 16 -2 19 1 4 3 -2 6 -13 5 -11 0 -14 -3 -6 -6z"/>
<path d="M1895 4909 c-55 -12 -58 -13 -73 -23 -7 -4 -19 -2 -27 4 -9 8 -15 8
-15 2 0 -6 5 -12 12 -14 6 -2 -5 -15 -26 -27 -21 -13 -56 -47 -78 -75 -22 -28
-48 -54 -57 -58 -9 -4 -11 -7 -4 -7 7 -1 10 -8 6 -17 -5 -13 -8 -13 -15 -2 -8
10 -9 9 -4 -4 3 -10 -2 -40 -10 -67 -31 -106 -16 -311 32 -443 9 -24 18 -54
19 -68 2 -13 9 -26 14 -28 6 -2 11 -8 11 -13 0 -12 63 -142 72 -149 4 -3 12
-18 18 -34 8 -21 7 -33 -2 -45 -10 -13 -10 -14 1 -4 16 14 24 5 91 -102 23
-38 46 -72 49 -75 23 -19 33 -41 23 -53 -12 -14 2 -46 15 -34 4 5 1 12 -6 16
-7 5 -9 11 -4 14 8 5 119 -120 129 -148 3 -8 11 -12 17 -8 6 4 8 -2 5 -15 -4
-15 -2 -19 8 -15 17 6 18 -9 2 -25 -9 -9 -9 -15 0 -24 9 -9 15 -9 25 1 10 10
9 11 -5 6 -10 -4 -18 -3 -18 3 0 5 6 12 14 15 17 7 40 -16 28 -27 -4 -4 -2 -7
3 -5 14 3 181 -163 177 -176 -2 -5 0 -7 4 -3 10 10 34 -10 30 -25 -1 -7 -1 -9
1 -4 9 14 25 7 19 -9 -3 -9 -2 -12 5 -9 16 10 104 -77 103 -102 0 -12 4 -19 9
-16 4 3 6 11 3 19 -3 8 -3 14 0 14 10 0 84 -63 79 -68 -2 -3 -13 1 -22 9 -16
13 -17 12 -4 -4 8 -10 20 -16 27 -13 17 7 99 -55 84 -64 -8 -5 -7 -9 5 -13 10
-5 14 -3 9 4 -4 7 -1 10 7 7 8 -3 13 -11 11 -17 -1 -7 2 -10 7 -7 13 9 81 -37
76 -51 -5 -16 19 -35 36 -28 18 6 102 -49 92 -60 -5 -4 -3 -5 4 -1 7 3 45 -14
84 -40 40 -26 86 -51 101 -56 15 -6 28 -13 28 -16 0 -4 20 -16 45 -27 30 -13
41 -22 32 -28 -7 -5 -4 -6 9 -2 14 3 28 -1 38 -11 14 -14 31 -21 59 -23 5 -1
5 -6 1 -13 -4 -6 -3 -8 4 -4 14 8 65 -11 58 -23 -4 -5 4 -7 16 -3 13 3 19 1
15 -5 -4 -6 -1 -10 6 -9 6 0 45 -12 85 -28 51 -21 69 -32 60 -39 -9 -6 -7 -7
6 -3 11 4 76 -16 160 -47 77 -30 204 -71 281 -93 77 -21 143 -42 146 -47 3 -4
13 -5 21 -2 9 4 32 -1 52 -9 20 -8 43 -13 51 -9 9 3 21 1 28 -4 6 -5 23 -10
37 -11 14 0 70 -8 125 -17 55 -9 127 -20 161 -25 33 -6 76 -10 95 -11 27 0 30
-2 14 -8 -13 -6 3 -8 45 -8 36 1 189 0 340 -1 151 -1 302 0 335 3 33 3 80 7
105 10 25 2 86 10 135 19 50 9 108 17 130 19 22 1 45 6 51 10 7 4 23 7 35 6
13 0 49 6 80 15 31 9 70 17 85 18 16 1 34 5 39 8 6 4 57 19 115 35 58 15 150
43 205 62 55 19 114 38 130 42 17 5 49 18 72 29 24 13 49 19 59 15 10 -4 15
-2 11 4 -3 5 17 18 46 28 29 10 55 23 58 28 4 5 18 10 33 10 14 0 24 3 21 7
-2 3 22 17 53 30 31 13 91 42 132 64 41 22 77 41 80 41 3 0 17 8 31 18 15 10
34 15 45 11 14 -4 15 -3 6 4 -18 12 111 94 134 85 13 -5 13 -7 2 -14 -9 -6 -9
-9 -1 -9 20 0 25 18 7 28 -13 7 -10 13 21 31 20 11 40 19 45 16 5 -3 12 0 16
6 4 8 3 9 -4 5 -7 -4 -12 -5 -12 -3 0 12 123 86 132 81 6 -4 8 -3 5 3 -4 6 19
30 51 53 31 24 83 63 114 87 31 25 61 42 66 39 5 -3 9 2 8 11 0 10 9 20 24 24
14 4 18 7 10 8 -10 1 -7 6 9 17 12 9 39 32 58 52 37 37 72 48 86 28 5 -6 5 -1
2 12 -4 14 -2 22 6 22 7 0 9 3 6 7 -4 3 -16 -2 -27 -12 -11 -10 -20 -14 -20
-9 0 11 41 39 52 36 4 -1 4 6 1 15 -5 12 -2 15 10 10 9 -3 16 -3 14 2 -4 14
125 151 136 144 5 -3 7 -2 4 4 -6 10 20 47 80 112 18 19 36 43 39 53 6 19 14
22 29 11 6 -5 7 -4 3 1 -11 14 -10 28 2 21 6 -3 7 1 4 9 -3 9 -2 16 2 16 5 0
36 40 69 89 32 49 62 88 66 85 4 -2 11 1 15 7 4 8 3 9 -4 5 -7 -4 -12 -5 -12
-1 0 8 33 59 43 66 5 3 9 9 8 12 0 12 52 122 65 137 7 8 13 20 13 25 1 15 72
179 82 190 15 15 10 36 -7 33 -9 -2 -29 -14 -44 -28 -42 -38 -175 -104 -195
-96 -13 4 -16 2 -11 -9 5 -14 -6 -19 -41 -18 -7 1 -11 -3 -8 -6 4 -8 -91 -51
-111 -51 -6 0 -28 -8 -50 -19 -40 -19 -323 -94 -340 -90 -5 1 -22 -3 -37 -9
-16 -7 -36 -12 -45 -12 -15 0 -15 2 -2 11 12 9 12 10 -3 5 -10 -3 -23 -6 -28
-6 -6 0 -8 -4 -5 -9 3 -5 -31 -14 -77 -21 -45 -6 -98 -16 -117 -20 -19 -5 -64
-12 -100 -15 -36 -4 -74 -9 -85 -12 -11 -2 -51 -6 -90 -8 -38 -3 -101 -9 -140
-15 -38 -6 -117 -13 -175 -17 -183 -10 -590 -15 -590 -6 0 5 -53 8 -117 8
-177 0 -391 19 -623 56 -36 6 -81 12 -100 15 -59 7 -270 44 -372 64 -53 11
-99 20 -103 20 -3 0 -4 4 -1 8 3 5 -7 7 -22 5 -22 -3 -142 22 -307 62 -11 3
-44 10 -72 16 -58 12 -72 22 -20 16 17 -2 23 -2 13 0 -16 4 -17 7 -5 15 10 6
6 7 -11 1 -39 -12 -90 -7 -155 16 -33 12 -71 23 -85 25 -60 7 -159 40 -147 49
7 5 4 6 -9 2 -12 -3 -50 4 -85 15 -35 11 -72 20 -82 20 -10 0 -15 5 -12 10 3
6 -2 10 -12 11 -32 1 -56 7 -141 35 -59 19 -80 30 -70 36 9 7 7 8 -8 4 -24 -7
-227 58 -216 69 4 4 -3 4 -15 1 -12 -4 -24 -2 -28 4 -3 5 -15 10 -26 10 -13 0
-18 4 -13 12 4 7 3 8 -4 4 -14 -8 -322 95 -316 106 3 5 -3 7 -13 5 -10 -1 -91
23 -180 53 -140 47 -160 57 -150 70 10 13 10 13 -5 2 -14 -11 -52 -1 -246 64
-127 43 -228 82 -225 87 3 5 -3 6 -15 3 -11 -4 -23 -2 -27 4 -3 6 -10 8 -13 6
-4 -2 -43 6 -87 19 -56 16 -73 24 -55 26 14 2 -36 5 -110 5 -74 1 -153 -2
-175 -7z m1605 -775 c47 -15 90 -34 96 -42 6 -8 16 -12 23 -8 13 8 188 -50
212 -70 9 -8 18 -11 22 -8 5 5 89 -19 272 -78 89 -29 114 -41 107 -53 -3 -5 2
-4 11 3 14 12 23 11 59 -2 36 -13 107 -33 178 -50 8 -2 60 -15 115 -29 55 -14
120 -30 145 -36 25 -7 57 -14 72 -16 15 -2 44 -8 65 -14 68 -18 474 -96 484
-93 4 1 33 -3 65 -8 33 -5 77 -12 99 -15 22 -3 65 -10 95 -15 30 -6 75 -13
100 -16 25 -3 47 -11 49 -16 2 -6 7 -4 12 3 6 10 11 11 19 3 14 -14 -8 -67
-23 -57 -6 3 -7 1 -3 -6 4 -6 -1 -23 -12 -39 -10 -15 -22 -36 -26 -47 -6 -16
-9 -17 -17 -5 -8 12 -9 11 -5 -5 4 -14 -5 -32 -27 -58 -17 -20 -40 -48 -50
-62 -10 -14 -21 -24 -25 -22 -4 1 -8 -2 -9 -6 -2 -12 -55 -67 -65 -67 -4 0 -5
6 -2 14 3 8 1 16 -3 19 -5 3 -9 -5 -9 -19 1 -13 -3 -25 -8 -26 -5 -2 -25 -18
-44 -35 -20 -18 -41 -33 -48 -33 -6 0 -17 -7 -24 -15 -7 -9 -18 -14 -25 -11
-12 4 -14 -28 -2 -40 3 -3 50 -5 104 -4 109 2 131 4 153 13 8 3 53 15 99 27
46 11 99 27 118 35 19 8 40 12 46 8 5 -3 7 -2 4 4 -3 5 12 18 34 27 52 23 168
93 195 117 11 11 24 16 28 12 4 -5 6 -3 4 2 -3 12 53 71 65 67 5 -1 6 2 3 7
-3 5 2 19 12 32 10 13 24 39 31 56 7 18 17 31 20 28 4 -2 7 6 7 18 l-1 22 265
0 c160 0 268 4 272 10 14 20 18 -4 8 -46 -6 -24 -11 -53 -11 -63 0 -24 -38
-164 -51 -189 -5 -10 -12 -30 -14 -44 -3 -14 -18 -54 -34 -90 -20 -45 -33 -62
-42 -57 -10 5 -10 4 -1 -6 9 -10 8 -20 -4 -46 -9 -18 -20 -31 -25 -28 -4 3 -5
-2 -2 -10 4 -9 -1 -18 -10 -22 -9 -3 -14 -10 -11 -14 3 -4 -11 -31 -30 -60
-19 -29 -35 -55 -35 -59 -1 -3 -10 -17 -21 -30 -17 -21 -22 -22 -30 -10 -5 7
-9 19 -9 24 0 6 -5 16 -11 22 -13 13 -10 15 -91 -61 -72 -67 -245 -193 -252
-184 -2 2 24 70 56 152 33 82 61 156 63 165 2 9 10 36 19 61 36 105 67 213 61
218 -10 11 -35 10 -29 0 4 -6 0 -16 -8 -22 -8 -6 -16 -14 -16 -19 -1 -4 -20
-32 -43 -63 -31 -41 -45 -52 -51 -42 -6 9 -7 6 -4 -8 4 -14 -1 -27 -15 -40
l-22 -19 12 25 c11 23 11 24 -3 6 -9 -10 -13 -23 -10 -27 6 -10 -66 -105 -77
-102 -5 2 -6 -4 -3 -12 4 -8 1 -15 -5 -15 -6 0 -17 -12 -26 -27 -8 -16 -29
-44 -45 -63 l-31 -35 -28 34 c-32 39 -40 33 -46 -32 -6 -59 -48 -173 -63 -169
-8 1 -12 -5 -10 -15 6 -33 -20 -18 -67 40 -26 31 -51 57 -55 57 -4 0 -13 -25
-20 -55 -7 -30 -17 -55 -22 -55 -4 0 -8 -13 -8 -30 0 -16 -4 -30 -10 -30 -9 0
-14 14 -11 32 0 4 -5 5 -12 3 -6 -3 -24 6 -39 20 -15 14 -29 25 -31 25 -2 0
-4 -13 -5 -29 -1 -37 -28 -91 -46 -91 -14 0 -30 -29 -21 -38 3 -3 5 -1 5 5 0
6 7 13 15 17 13 5 13 2 -1 -19 -13 -20 -20 -23 -30 -14 -8 6 -14 19 -15 28 0
11 -2 12 -6 3 -4 -10 -8 -10 -19 -1 -8 6 -11 16 -7 22 3 5 2 8 -3 4 -5 -3 -20
1 -33 8 -24 12 -28 9 -97 -63 l-73 -75 -36 29 c-21 16 -44 34 -52 39 -9 6 -26
20 -39 33 -25 24 -39 28 -49 12 -3 -5 -12 -7 -20 -3 -10 3 -13 0 -10 -8 5 -13
-10 -25 -83 -67 -26 -15 -28 -13 -77 52 -17 22 -23 36 -15 31 8 -5 0 7 -18 25
-18 19 -30 40 -27 48 2 7 0 10 -5 7 -6 -3 -10 -1 -10 4 0 6 -11 11 -25 11 -17
0 -25 -6 -25 -17 0 -9 -3 -14 -6 -11 -3 3 -16 -5 -29 -18 -26 -26 -54 -32 -56
-11 -1 6 -4 1 -8 -13 -7 -23 -7 -23 -25 14 -15 32 -16 40 -5 47 11 7 11 9 -2
9 -11 0 -20 17 -29 58 -7 31 -17 62 -22 69 -5 7 -4 13 4 16 9 4 9 6 1 6 -14 1
-45 -29 -93 -92 -19 -26 -42 -46 -51 -47 -18 0 -34 44 -23 62 5 7 2 8 -6 3
-10 -6 -12 -4 -7 8 4 10 2 17 -4 17 -6 0 -9 9 -6 20 3 11 1 18 -4 14 -5 -3 -9
-1 -9 5 0 5 6 12 13 14 7 3 5 6 -5 6 -19 1 -20 3 -23 70 -1 30 -8 49 -21 58
-17 13 -20 11 -37 -26 -19 -44 -37 -54 -37 -20 0 13 -4 18 -12 13 -8 -5 -9 -2
-5 10 4 9 3 15 -2 11 -13 -7 -83 85 -77 101 3 8 -1 11 -10 7 -7 -3 -14 0 -14
7 0 6 -14 29 -31 50 -28 35 -30 42 -18 57 13 16 12 17 -2 5 -15 -11 -22 -6
-54 37 -21 29 -33 56 -29 62 4 7 3 9 -3 6 -6 -4 -22 10 -34 31 l-24 37 -3 -35
c-2 -19 1 -51 7 -71 6 -21 8 -45 4 -55 -4 -12 -3 -15 6 -10 9 6 12 2 10 -10
-1 -11 3 -32 10 -48 6 -16 9 -36 6 -45 -3 -8 -3 -12 1 -8 8 8 46 -97 45 -125
0 -10 4 -18 9 -18 5 0 7 -7 4 -15 -4 -8 -2 -15 4 -15 6 0 21 -33 34 -74 l24
-74 -47 32 c-26 17 -45 35 -42 40 4 5 1 6 -5 2 -12 -7 -128 69 -182 120 -39
37 -56 41 -85 20 -17 -12 -22 -10 -48 33 -53 82 -78 131 -72 141 3 5 0 12 -6
16 -8 4 -9 3 -5 -4 4 -7 4 -12 1 -12 -9 0 -44 83 -39 92 3 4 1 8 -4 8 -8 0
-29 45 -73 158 -5 13 -6 28 -3 34 4 6 2 8 -3 5 -6 -4 -13 2 -16 13 -3 11 -1
18 4 15 5 -3 -3 17 -17 44 -13 28 -26 65 -27 83 -1 18 -5 35 -9 38 -3 3 -9 23
-11 45 -2 22 -7 47 -10 55 -6 16 -12 51 -27 165 -16 117 -12 334 6 396 20 66
23 72 38 66 6 -2 49 -17 96 -33z m-695 -1314 c3 -5 2 -10 -4 -10 -5 0 -13 5
-16 10 -3 6 -2 10 4 10 5 0 13 -4 16 -10z"/>
<path d="M3788 4003 c7 -3 16 -2 19 1 4 3 -2 6 -13 5 -11 0 -14 -3 -6 -6z"/>
<path d="M4198 3863 c7 -3 16 -2 19 1 4 3 -2 6 -13 5 -11 0 -14 -3 -6 -6z"/>
<path d="M4241 3844 c0 -11 3 -14 6 -6 3 7 2 16 -1 19 -3 4 -6 -2 -5 -13z"/>
<path d="M4127 3830 c-9 -6 -22 -8 -27 -5 -6 4 -10 3 -9 -2 4 -20 -2 -27 -12
-13 -9 12 -10 12 -5 -3 4 -11 -2 -31 -14 -47 -31 -43 -58 -232 -38 -265 3 -6
9 -26 13 -45 4 -19 12 -41 17 -47 6 -7 8 -20 4 -28 -3 -9 -2 -13 4 -10 11 7
32 -30 22 -40 -4 -3 -2 -5 4 -3 5 2 24 -10 41 -27 17 -16 40 -36 51 -44 24
-17 19 -36 -7 -26 -12 5 -13 4 -4 -6 9 -9 15 -9 27 0 11 9 24 6 62 -17 27 -15
70 -37 96 -47 25 -11 44 -24 41 -29 -4 -5 -1 -6 5 -2 6 3 33 -3 61 -13 122
-49 441 -85 441 -51 0 6 -5 10 -11 10 -10 0 -67 39 -103 72 -16 14 -17 20 -6
33 11 13 10 14 -5 9 -14 -6 -16 -4 -10 6 5 9 4 11 -4 6 -6 -4 -9 -13 -5 -19 3
-7 -1 -4 -9 6 -9 10 -19 18 -24 19 -4 0 -7 4 -6 9 2 5 -2 9 -8 9 -5 0 -7 5 -3
12 4 6 3 8 -3 5 -13 -8 -89 79 -87 99 1 7 -5 10 -15 7 -9 -4 -13 -3 -9 2 4 4
-4 17 -18 28 -14 10 -23 26 -20 33 3 8 0 13 -5 11 -18 -3 -113 165 -101 179 4
4 1 4 -5 0 -8 -4 -13 -2 -13 6 0 7 -16 37 -35 66 -19 29 -32 59 -29 66 3 8 1
17 -5 21 -7 4 -8 -1 -4 -12 4 -13 -3 -9 -25 11 -17 16 -29 33 -26 37 3 5 -1 6
-9 3 -8 -3 -20 3 -28 12 -13 16 -12 17 6 10 11 -4 16 -3 11 1 -4 4 -17 9 -29
11 -94 11 -114 11 -130 2z"/>
<path d="M4041 3774 c0 -11 3 -14 6 -6 3 7 2 16 -1 19 -3 4 -6 -2 -5 -13z"/>
<path d="M3396 3595 c8 -37 14 -45 14 -19 0 10 -5 26 -10 34 -8 11 -9 7 -4
-15z"/>
<path d="M3421 3484 c0 -11 3 -14 6 -6 3 7 2 16 -1 19 -3 4 -6 -2 -5 -13z"/>
<path d="M5620 3350 c-8 -5 -10 -10 -5 -10 6 0 17 5 25 10 8 5 11 10 5 10 -5
0 -17 -5 -25 -10z"/>
<path d="M5550 3240 c0 -5 5 -10 11 -10 5 0 7 5 4 10 -3 6 -8 10 -11 10 -2 0
-4 -4 -4 -10z"/>
<path d="M5460 3190 c-8 -5 -10 -10 -5 -10 6 0 17 5 25 10 8 5 11 10 5 10 -5
0 -17 -5 -25 -10z"/>
<path d="M6735 3179 c-4 -6 -5 -12 -2 -15 2 -3 7 2 10 11 7 17 1 20 -8 4z"/>
<path d="M5117 3157 c-9 -14 -19 -37 -23 -51 -3 -14 -10 -26 -15 -26 -5 0 -9
-9 -9 -20 0 -21 -31 -93 -42 -98 -4 -2 -4 -10 -1 -19 5 -12 3 -14 -7 -8 -10 6
-12 4 -7 -8 3 -9 2 -19 -3 -22 -5 -3 -16 -29 -26 -58 -9 -28 -23 -61 -30 -72
-8 -11 -14 -28 -14 -38 0 -10 -5 -15 -10 -12 -6 4 -5 -8 3 -27 18 -44 68 -63
111 -41 24 12 30 13 38 1 7 -10 8 -10 6 2 -3 20 31 70 48 70 8 0 14 -7 14 -14
0 -26 62 -63 114 -69 27 -3 43 -1 37 3 -9 5 -9 9 3 13 19 7 23 82 5 93 -6 3
-9 14 -6 25 3 10 -4 25 -14 35 -11 10 -17 24 -14 31 3 9 0 11 -7 7 -8 -5 -9
-2 -5 9 3 10 3 17 -1 17 -12 0 -34 59 -26 71 4 7 3 9 -2 6 -6 -3 -18 18 -28
46 -18 53 -30 85 -57 146 l-15 34 -17 -26z"/>
<path d="M3957 3140 c3 -11 7 -20 9 -20 2 0 4 9 4 20 0 11 -4 20 -9 20 -5 0
-7 -9 -4 -20z"/>
<path d="M5176 3118 c3 -5 10 -6 15 -3 13 9 11 12 -6 12 -8 0 -12 -4 -9 -9z"/>
<path d="M6651 3064 c0 -11 3 -14 6 -6 3 7 2 16 -1 19 -3 4 -6 -2 -5 -13z"/>
<path d="M5044 3050 c0 -13 4 -16 10 -10 7 7 7 13 0 20 -6 6 -10 3 -10 -10z"/>
<path d="M3931 2930 c0 -8 4 -24 9 -35 5 -13 9 -14 9 -5 0 8 -4 24 -9 35 -5
13 -9 14 -9 5z"/>
<path d="M6105 2900 c-3 -5 -1 -10 4 -10 6 0 11 5 11 10 0 6 -2 10 -4 10 -3 0
-8 -4 -11 -10z"/>
<path d="M3656 2867 c3 -10 9 -15 12 -12 3 3 0 11 -7 18 -10 9 -11 8 -5 -6z"/>
<path d="M4886 2705 c4 -8 8 -15 10 -15 2 0 4 7 4 15 0 8 -4 15 -10 15 -5 0
-7 -7 -4 -15z"/>
<path d="M4371 2684 c0 -11 3 -14 6 -6 3 7 2 16 -1 19 -3 4 -6 -2 -5 -13z"/>
<path d="M5130 2696 c0 -2 8 -10 18 -17 15 -13 16 -12 3 4 -13 16 -21 21 -21
13z"/>
<path d="M4906 2675 c-9 -26 -7 -32 5 -12 6 10 9 21 6 23 -2 3 -7 -2 -11 -11z"/>
<path d="M4011 2664 c0 -11 3 -14 6 -6 3 7 2 16 -1 19 -3 4 -6 -2 -5 -13z"/>
<path d="M5872 2645 c0 -16 2 -22 5 -12 2 9 2 23 0 30 -3 6 -5 -1 -5 -18z"/>
<path d="M4025 2639 c-4 -6 -5 -12 -2 -15 2 -3 7 2 10 11 7 17 1 20 -8 4z"/>
<path d="M4045 2610 c3 -5 8 -10 11 -10 2 0 4 5 4 10 0 6 -5 10 -11 10 -5 0
-7 -4 -4 -10z"/>
<path d="M5795 2550 c-4 -6 -1 -18 6 -26 11 -14 13 -14 21 0 15 26 -12 51 -27
26z m25 -10 c0 -5 -4 -10 -10 -10 -5 0 -10 5 -10 10 0 6 5 10 10 10 6 0 10 -4
10 -10z"/>
<path d="M4622 2480 c0 -14 2 -19 5 -12 2 6 2 18 0 25 -3 6 -5 1 -5 -13z"/>
<path d="M5531 2484 c0 -11 3 -14 6 -6 3 7 2 16 -1 19 -3 4 -6 -2 -5 -13z"/>
<path d="M4660 2445 c-7 -8 -8 -15 -2 -15 5 0 15 7 22 15 7 8 8 15 2 15 -5 0
-15 -7 -22 -15z"/>
<path d="M4865 2389 c-4 -6 -5 -12 -2 -15 2 -3 7 2 10 11 7 17 1 20 -8 4z"/>
<path d="M4982 2393 c-6 -2 -10 -9 -6 -14 8 -14 21 -11 21 6 0 8 -1 15 -1 14
-1 0 -7 -3 -14 -6z"/>
<path d="M5286 2374 c-5 -14 -4 -15 9 -4 17 14 19 20 6 20 -5 0 -12 -7 -15
-16z"/>
<path d="M5868 4913 c7 -3 16 -2 19 1 4 3 -2 6 -13 5 -11 0 -14 -3 -6 -6z"/>
<path d="M5820 4900 c21 -7 22 -8 5 -9 -17 -1 -17 -3 -5 -11 10 -6 16 -6 18 0
2 6 18 10 35 10 44 0 30 6 -28 13 -34 4 -42 3 -25 -3z"/>
<path d="M5800 4850 c8 -5 24 -10 34 -10 26 0 18 6 -19 14 -22 5 -26 4 -15 -4z"/>
<path d="M5868 4853 c7 -3 16 -2 19 1 4 3 -2 6 -13 5 -11 0 -14 -3 -6 -6z"/>
<path d="M1710 4839 c0 -5 5 -7 10 -4 6 3 10 8 10 11 0 2 -4 4 -10 4 -5 0 -10
-5 -10 -11z"/>
<path d="M1666 4787 c3 -10 9 -15 12 -12 3 3 0 11 -7 18 -10 9 -11 8 -5 -6z"/>
<path d="M2620 4776 c32 -20 46 -20 54 -1 3 9 0 15 -10 15 -9 0 -12 -5 -8 -12
5 -8 2 -9 -9 -5 -40 16 -50 17 -27 3z"/>
<path d="M6155 4780 c-3 -6 1 -7 9 -4 18 7 21 14 7 14 -6 0 -13 -4 -16 -10z"/>
<path d="M6230 4781 c0 -6 4 -13 10 -16 6 -3 7 1 4 9 -7 18 -14 21 -14 7z"/>
<path d="M6305 4780 c-16 -7 -17 -9 -3 -9 9 -1 20 4 23 9 7 11 7 11 -20 0z"/>
<path d="M1606 4755 c-9 -26 -7 -32 5 -12 6 10 9 21 6 23 -2 3 -7 -2 -11 -11z"/>
<path d="M3727 4763 c-4 -3 -7 -16 -6 -27 0 -19 1 -19 10 3 10 24 8 36 -4 24z"/>
<path d="M6328 4753 c6 -2 18 -2 25 0 6 3 1 5 -13 5 -14 0 -19 -2 -12 -5z"/>
<path d="M6528 4713 c7 -3 16 -2 19 1 4 3 -2 6 -13 5 -11 0 -14 -3 -6 -6z"/>
<path d="M6600 4701 c0 -5 5 -13 10 -16 6 -3 10 -2 10 4 0 5 -4 13 -10 16 -5
3 -10 2 -10 -4z"/>
<path d="M6686 4545 c4 -8 8 -15 10 -15 2 0 4 7 4 15 0 8 -4 15 -10 15 -5 0
-7 -7 -4 -15z"/>
<path d="M3327 4539 c7 -7 15 -10 18 -7 3 3 -2 9 -12 12 -14 6 -15 5 -6 -5z"/>
<path d="M3398 4513 c7 -3 16 -2 19 1 4 3 -2 6 -13 5 -11 0 -14 -3 -6 -6z"/>
<path d="M4489 4361 c11 -7 11 -9 0 -13 -8 -3 -10 -9 -5 -14 5 -5 11 -4 13 4
3 6 12 12 21 13 14 0 13 2 -3 9 -26 11 -44 12 -26 1z"/>
<path d="M4438 4343 c7 -3 16 -2 19 1 4 3 -2 6 -13 5 -11 0 -14 -3 -6 -6z"/>
<path d="M8680 4296 c0 -4 7 -14 15 -22 8 -9 15 -11 15 -6 0 5 -7 15 -15 22
-8 7 -15 9 -15 6z"/>
<path d="M4758 4263 c7 -3 16 -2 19 1 4 3 -2 6 -13 5 -11 0 -14 -3 -6 -6z"/>
<path d="M5258 4193 c7 -3 16 -2 19 1 4 3 -2 6 -13 5 -11 0 -14 -3 -6 -6z"/>
<path d="M5298 4173 c7 -3 16 -2 19 1 4 3 -2 6 -13 5 -11 0 -14 -3 -6 -6z"/>
<path d="M6782 4160 c0 -14 2 -19 5 -12 2 6 2 18 0 25 -3 6 -5 1 -5 -13z"/>
<path d="M1614 4147 c-2 -7 0 -24 5 -38 8 -21 9 -20 8 13 -2 41 -5 46 -13 25z"/>
<path d="M8290 4150 c-12 -8 -9 -9 12 -8 15 1 24 6 22 10 -7 10 -16 10 -34 -2z"/>
<path d="M8180 4140 c0 -12 8 -12 35 0 18 8 17 9 -7 9 -16 1 -28 -3 -28 -9z"/>
<path d="M5818 4113 c7 -3 16 -2 19 1 4 3 -2 6 -13 5 -11 0 -14 -3 -6 -6z"/>
<path d="M8070 4070 c12 -8 12 -10 1 -10 -8 0 -12 -2 -9 -5 3 -3 13 -2 22 1
14 5 15 9 4 15 -7 5 -17 9 -23 9 -5 0 -3 -5 5 -10z"/>
<path d="M4908 4063 c7 -3 16 -2 19 1 4 3 -2 6 -13 5 -11 0 -14 -3 -6 -6z"/>
<path d="M4998 4043 c7 -3 16 -2 19 1 4 3 -2 6 -13 5 -11 0 -14 -3 -6 -6z"/>
<path d="M7930 4030 c-13 -8 -13 -10 2 -10 9 0 20 5 23 10 8 13 -5 13 -25 0z"/>
<path d="M7648 3983 c6 -2 18 -2 25 0 6 3 1 5 -13 5 -14 0 -19 -2 -12 -5z"/>
<path d="M5408 3973 c6 -2 18 -2 25 0 6 3 1 5 -13 5 -14 0 -19 -2 -12 -5z"/>
<path d="M7528 3973 c6 -2 18 -2 25 0 6 3 1 5 -13 5 -14 0 -19 -2 -12 -5z"/>
<path d="M8536 3963 c-6 -14 -5 -15 5 -6 7 7 10 15 7 18 -3 3 -9 -2 -12 -12z"/>
<path d="M7633 3963 c9 -2 25 -2 35 0 9 3 1 5 -18 5 -19 0 -27 -2 -17 -5z"/>
<path d="M1686 3945 c-9 -26 -7 -32 5 -12 6 10 9 21 6 23 -2 3 -7 -2 -11 -11z"/>
<path d="M5498 3953 c7 -3 16 -2 19 1 4 3 -2 6 -13 5 -11 0 -14 -3 -6 -6z"/>
<path d="M7128 3913 c7 -3 16 -2 19 1 4 3 -2 6 -13 5 -11 0 -14 -3 -6 -6z"/>
<path d="M7133 3893 c9 -2 23 -2 30 0 6 3 -1 5 -18 5 -16 0 -22 -2 -12 -5z"/>
<path d="M6813 3883 c9 -2 23 -2 30 0 6 3 -1 5 -18 5 -16 0 -22 -2 -12 -5z"/>
<path d="M7048 3883 c7 -3 16 -2 19 1 4 3 -2 6 -13 5 -11 0 -14 -3 -6 -6z"/>
<path d="M6528 3873 c6 -2 18 -2 25 0 6 3 1 5 -13 5 -14 0 -19 -2 -12 -5z"/>
<path d="M6443 3863 c9 -2 23 -2 30 0 6 3 -1 5 -18 5 -16 0 -22 -2 -12 -5z"/>
<path d="M1850 3719 c0 -9 31 -69 35 -69 3 0 2 8 -2 18 -7 19 -33 59 -33 51z"/>
<path d="M1850 3620 c0 -5 5 -10 11 -10 5 0 7 5 4 10 -3 6 -8 10 -11 10 -2 0
-4 -4 -4 -10z"/>
<path d="M1930 3546 c0 -2 8 -10 18 -17 15 -13 16 -12 3 4 -13 16 -21 21 -21
13z"/>
<path d="M2013 3474 c0 -14 2 -21 6 -17 3 4 9 10 12 13 4 3 1 10 -6 17 -10 9
-12 6 -12 -13z"/>
<path d="M8200 3479 c0 -5 5 -7 10 -4 6 3 10 8 10 11 0 2 -4 4 -10 4 -5 0 -10
-5 -10 -11z"/>
<path d="M2035 3450 c-3 -5 -1 -10 4 -10 6 0 11 5 11 10 0 6 -2 10 -4 10 -3 0
-8 -4 -11 -10z"/>
<path d="M8050 3315 c-7 -9 -11 -17 -9 -20 3 -2 10 5 17 15 14 24 10 26 -8 5z"/>
<path d="M2260 3220 c0 -5 5 -10 11 -10 5 0 7 5 4 10 -3 6 -8 10 -11 10 -2 0
-4 -4 -4 -10z"/>
<path d="M2425 3080 c10 -11 20 -20 23 -20 3 0 -3 9 -13 20 -10 11 -20 20 -23
20 -3 0 3 -9 13 -20z"/>
<path d="M2403 3062 c1 -12 6 -18 15 -15 7 3 10 9 5 12 -4 3 -11 10 -15 15 -4
4 -6 -1 -5 -12z"/>
<path d="M7730 3030 c-8 -5 -12 -11 -10 -14 3 -2 14 2 24 10 22 15 10 19 -14
4z"/>
<path d="M2495 2997 l-20 -20 25 13 c32 16 33 17 23 23 -4 2 -17 -5 -28 -16z"/>
<path d="M7729 2990 c-13 -10 -20 -19 -16 -20 4 0 17 9 29 20 28 26 17 26 -13
0z"/>
<path d="M7654 2969 c-19 -22 -19 -22 4 -8 12 8 22 17 22 21 0 12 -6 9 -26
-13z"/>
<path d="M2520 2976 c0 -2 7 -7 16 -10 8 -3 12 -2 9 4 -6 10 -25 14 -25 6z"/>
<path d="M2560 2920 c0 -5 5 -10 11 -10 5 0 7 5 4 10 -3 6 -8 10 -11 10 -2 0
-4 -4 -4 -10z"/>
<path d="M2745 2840 c3 -5 8 -10 11 -10 2 0 4 5 4 10 0 6 -5 10 -11 10 -5 0
-7 -4 -4 -10z"/>
<path d="M7480 2839 c0 -5 5 -7 10 -4 6 3 10 8 10 11 0 2 -4 4 -10 4 -5 0 -10
-5 -10 -11z"/>
<path d="M7450 2820 c-8 -5 -12 -12 -9 -15 4 -3 12 1 19 10 14 17 11 19 -10 5z"/>
<path d="M7480 2810 c-9 -6 -10 -10 -3 -10 6 0 15 5 18 10 8 12 4 12 -15 0z"/>
<path d="M7240 2650 c-9 -6 -10 -10 -3 -10 6 0 15 5 18 10 8 12 4 12 -15 0z"/>
<path d="M7080 2575 c14 -8 30 -14 35 -14 6 0 -1 6 -15 14 -14 8 -29 14 -35
14 -5 0 1 -6 15 -14z"/>
<path d="M6989 2533 c-13 -16 -12 -17 4 -4 9 7 17 15 17 17 0 8 -8 3 -21 -13z"/>
<path d="M6910 2510 c-8 -5 -10 -10 -5 -10 6 0 17 5 25 10 8 5 11 10 5 10 -5
0 -17 -5 -25 -10z"/>
<path d="M6940 2500 c-9 -6 -10 -10 -3 -10 6 0 15 5 18 10 8 12 4 12 -15 0z"/>
<path d="M3308 2493 c7 -3 16 -2 19 1 4 3 -2 6 -13 5 -11 0 -14 -3 -6 -6z"/>
<path d="M6506 2341 c-3 -5 1 -12 10 -15 8 -3 13 -2 9 3 -3 5 1 12 7 14 8 4 7
6 -4 6 -9 1 -19 -3 -22 -8z"/>
<path d="M6618 2343 c7 -3 16 -2 19 1 4 3 -2 6 -13 5 -11 0 -14 -3 -6 -6z"/>
<path d="M3698 2333 c7 -3 16 -2 19 1 4 3 -2 6 -13 5 -11 0 -14 -3 -6 -6z"/>
<path d="M3855 2290 c3 -5 8 -10 11 -10 2 0 4 5 4 10 0 6 -5 10 -11 10 -5 0
-7 -4 -4 -10z"/>
<path d="M6358 2283 c7 -3 16 -2 19 1 4 3 -2 6 -13 5 -11 0 -14 -3 -6 -6z"/>
<path d="M6310 2260 c-8 -5 -10 -10 -5 -10 6 0 17 5 25 10 8 5 11 10 5 10 -5
0 -17 -5 -25 -10z"/>
<path d="M4258 2183 c6 -2 18 -2 25 0 6 3 1 5 -13 5 -14 0 -19 -2 -12 -5z"/>
<path d="M6028 2173 c7 -3 16 -2 19 1 4 3 -2 6 -13 5 -11 0 -14 -3 -6 -6z"/>
<path d="M4648 2123 c7 -3 16 -2 19 1 4 3 -2 6 -13 5 -11 0 -14 -3 -6 -6z"/>
<path d="M5613 2123 c9 -2 23 -2 30 0 6 3 -1 5 -18 5 -16 0 -22 -2 -12 -5z"/>
<path d="M4568 2103 c7 -3 16 -2 19 1 4 3 -2 6 -13 5 -11 0 -14 -3 -6 -6z"/>
<path d="M4728 2103 c6 -2 18 -2 25 0 6 3 1 5 -13 5 -14 0 -19 -2 -12 -5z"/>
<path d="M4956 2101 c-4 -5 3 -7 14 -4 23 6 26 13 6 13 -8 0 -17 -4 -20 -9z"/>
<path d="M5578 2103 c7 -3 16 -2 19 1 4 3 -2 6 -13 5 -11 0 -14 -3 -6 -6z"/>
<path d="M4808 2093 c7 -3 16 -2 19 1 4 3 -2 6 -13 5 -11 0 -14 -3 -6 -6z"/>
<path d="M5048 2093 c7 -3 16 -2 19 1 4 3 -2 6 -13 5 -11 0 -14 -3 -6 -6z"/>
<path d="M5133 2093 c9 -2 23 -2 30 0 6 3 -1 5 -18 5 -16 0 -22 -2 -12 -5z"/>
<path d="M5268 2093 c12 -2 30 -2 40 0 9 3 -1 5 -23 4 -22 0 -30 -2 -17 -4z"/>
<path d="M4728 2083 c7 -3 16 -2 19 1 4 3 -2 6 -13 5 -11 0 -14 -3 -6 -6z"/>
</g>
</svg>
